<?xml version="1.0" encoding="UTF-8"?>
<!DOCTYPE svg PUBLIC "-//W3C//DTD SVG 1.1//EN" "http://www.w3.org/Graphics/SVG/1.1/DTD/svg11.dtd">
<!-- Creator: CorelDRAW 2021 (64 Bit) -->
<svg xmlns="http://www.w3.org/2000/svg" xml:space="preserve" width="4074px" height="2761px" version="1.1" style="shape-rendering:geometricPrecision; text-rendering:geometricPrecision; image-rendering:optimizeQuality; fill-rule:evenodd; clip-rule:evenodd"
viewBox="0 0 3973.26 2692.8"
 xmlns:xlink="http://www.w3.org/1999/xlink"
 xmlns:xodm="http://www.corel.com/coreldraw/odm/2003">
 <defs>
  <style type="text/css">
   <![CDATA[
    .fil3 {fill:#5A5453}
    .fil14 {fill:#5E5A59}
    .fil4 {fill:#5F5C5B}
    .fil35 {fill:#615A59}
    .fil28 {fill:#625D5B}
    .fil16 {fill:#655E5D}
    .fil8 {fill:#66605F}
    .fil10 {fill:#686868}
    .fil21 {fill:#696261}
    .fil6 {fill:#6E6867}
    .fil33 {fill:#706A69}
    .fil34 {fill:#736F70}
    .fil32 {fill:#746C6C}
    .fil7 {fill:#76706E}
    .fil11 {fill:#7B7572}
    .fil5 {fill:#7D7675}
    .fil37 {fill:#7D7876}
    .fil15 {fill:#7E7A7A}
    .fil18 {fill:#827877}
    .fil17 {fill:#837C7B}
    .fil47 {fill:#897E7C}
    .fil9 {fill:#8B8483}
    .fil46 {fill:#8D8887}
    .fil48 {fill:#928986}
    .fil38 {fill:#A0A0A1}
    .fil39 {fill:#A2A3A3}
    .fil31 {fill:#A5A2A1}
    .fil23 {fill:#A6A5A2}
    .fil13 {fill:#A6A6A5}
    .fil2 {fill:#A8A7A5}
    .fil44 {fill:#D4D3D3}
    .fil29 {fill:#D7D8D9}
    .fil45 {fill:#DADADC}
    .fil30 {fill:#DCDCDD}
    .fil26 {fill:#E2E2E4}
    .fil27 {fill:#E5E5E5}
    .fil42 {fill:#E5EAED}
    .fil40 {fill:#EAEBEC}
    .fil41 {fill:#EAEDED}
    .fil43 {fill:#EAEEF1}
    .fil12 {fill:#EDEDED}
    .fil25 {fill:#EEEFF0}
    .fil1 {fill:#EFEFEE}
    .fil0 {fill:#F0EFEE}
    .fil19 {fill:#F0F2F2}
    .fil24 {fill:#F1F1F1}
    .fil22 {fill:#F2F4F6}
    .fil20 {fill:#F4F4F3}
    .fil36 {fill:#F4F5F4}
   ]]>
  </style>
 </defs>
 <g id="Camada_x0020_1">
  <metadata id="CorelCorpID_0Corel-Layer"/>
  <g id="_1331675387456">
   <path class="fil0" d="M2666.77 2476.25c195.93,-1.17 313.76,-21.65 546.54,-12.43 35.81,1.42 159.39,8.69 184.54,4.3 16.25,-69.28 13.15,-336.19 9.35,-429.63 -0.91,-22.45 -2.95,-46.15 -4.29,-69.37 -1.19,-20.73 1.89,-51.03 -11.02,-67.48l-369.08 8.4 -357.23 -13.64c-4.24,191.75 -30.23,388.27 1.19,579.85z"/>
   <path class="fil1" d="M1114.11 884.17c-10.05,19.53 -16.46,18.1 -42.7,18.79l-571.91 0.33c-16.21,-0.66 -44.41,3.4 -52.19,-12.17 -6.76,-13.56 4.87,-37.12 15.05,-45.37 14.25,-11.57 206.29,0.01 244.63,0.01l381.47 -4.87c10.66,10.32 23.77,24.05 25.65,43.28zm-936.1 -78.34c19,-7.59 109.33,13.02 135.12,17.63 60.81,10.88 51.72,71.88 3.56,76.92 -24.14,2.52 -136.38,8.34 -152.79,1.23 -35.14,-15.24 -17.84,-83.04 14.11,-95.78zm1169.83 -1.03c28.61,-4.9 42.85,-2.21 53.54,21.59 45.43,101.1 -48.24,78.6 -122.21,75.46 -27.2,-1.15 -54.05,0.71 -67.69,-15.46 -15.65,-18.57 -9.05,-44.86 6.9,-55.04 12.76,-8.15 108,-22.87 129.46,-26.55zm-775.92 -199.29c76.8,-6.64 397.51,-8.74 457.97,7.95 46.23,12.76 127.31,65.41 125.97,99.62 -1.11,28.46 -44.48,32.77 -74.15,39.13 -190.99,40.9 -452.41,39.01 -640.84,-8.48 -103.3,-26.04 36.11,-130.01 131.05,-138.22zm-177.27 -10.34c11.21,9.84 26.2,9.92 27.97,25.64 4.33,38.64 -134.76,46.48 -207.66,5.45 -31.22,-17.58 -38.19,-32.59 -58.49,-46.3 -12.81,10.46 -24.98,26.03 -36.03,38.84 -17.16,19.91 -9.55,28.58 -6.7,58.11 3.9,40.27 14.75,234.27 31.6,262.64 15.28,25.74 105.43,13.41 141.18,13.54l905.97 -0.07c201,-0.11 217.43,23.52 229.03,-51.73 13.21,-85.68 14.44,-132.41 21.76,-216.38 2.42,-27.75 10.98,-45.48 -4.12,-64.47 -8.9,-11.2 -27.64,-33.02 -38.6,-40.8 -39.68,30.04 -56.25,62.12 -139.64,72.19 -35.66,4.3 -66.81,2.43 -99.8,-6.94 -25.04,-7.1 -36.34,-23.25 -14.39,-39.12 4.64,-3.35 2.81,-1.31 8.29,-4.95 5.62,-3.73 4.29,-2.37 8.28,-6.35 -209.3,-22.17 -561.99,-36.32 -768.65,0.7z"/>
   <path class="fil0" d="M2300.94 2536.93c-89.44,-65.96 -62.94,-431.04 -55.33,-547.53 7.85,-120.29 37.93,-116.03 51.8,-154.32 -237.16,-26.19 -343.23,51.15 -466.56,116.98 -38.07,20.32 -36.26,18.86 -37.8,61.81 -2.12,59.32 -7.45,115.16 -7.46,174.82 -0.01,57.22 5.21,114 7.23,170.74 1.42,39.66 5.74,45.57 74.23,81.85 12.91,6.84 22.31,11.79 36.54,19.61 108.33,59.45 215.34,94.09 397.35,76.04z"/>
   <path class="fil2" d="M258.63 386.87c264.69,-15.37 521.02,-18.21 785.64,-10.15 80.89,2.47 174.31,10.49 253.83,8.76 -2.55,-34.3 -34.14,-106.33 -48.07,-137 -29.9,-65.83 -17.87,-78.27 -104.18,-80.75 -119.82,-3.45 -248.92,-9.11 -369.5,-8.02 -122.73,1.1 -245.42,5.58 -368.42,8.06 -38.03,0.77 -56.19,-2.96 -71.87,22.95 -25.55,42.23 -69.9,149.84 -77.43,196.15z"/>
   <path class="fil1" d="M245.47 398.15c-0.93,-42.87 53.67,-167.86 78.12,-210.9 16.79,-29.55 30.39,-29.27 66.85,-30.47 251.28,-8.21 539.03,-12.47 789.23,0.69 39.76,2.09 44.1,9.97 58.52,37.67 20.1,38.61 79.96,168.75 73.48,203 -35.47,1.9 -92.59,-2.87 -132.41,-4.24 -241.55,-8.3 -421.14,-12.91 -667.33,-5.15 -85.26,2.68 -183.48,11.3 -266.46,9.4zm1082 11.94c-0.91,-45.55 -29.36,-123.72 -46.56,-161.45 -20.14,-44.19 -48.65,-96.15 -95.47,-113.72 -53.69,-20.14 -333.99,-22.02 -409.09,-22.02 -75.98,0 -358.37,2.35 -408.02,23.19 -65.71,27.58 -131.74,178.22 -138,272.95 18.55,12.69 32.7,25.85 56.14,40.21 82.23,50.4 87.72,40.43 153.61,116.02l8.72 8.78c0.36,-0.7 1.59,1.46 2.44,2.14 133.82,-10.83 364.03,-19.44 502.91,-11.19 48.05,2.86 111.58,10.97 156.72,10.57 15.94,-29.64 65.58,-71.54 100.23,-92.31 19.85,-11.91 41.86,-23.14 62.56,-35.1 21.77,-12.58 36.14,-27.5 53.81,-38.07z"/>
   <path class="fil1" d="M111.67 2087.38c-3.52,42.5 -9.91,97.23 0.22,143.29 6.33,28.75 16.93,96.01 27.24,120.03 46.58,7.83 50.49,0.66 73.39,-20.12 55.16,-50.03 116.96,-72.05 199.63,-71.76l737.05 -0.12c57.33,-0.15 107.09,12.49 147.13,35.86 79.23,46.27 51.84,66.23 121.57,56.43 8.78,-16.34 23.49,-99.16 28.52,-123.29 10.67,-51.2 2.88,-89.56 2.8,-135.13 -13.3,-11.22 -21.22,-33.12 -30.49,-51.18 -8.45,-16.47 -15.31,-33.87 -26.84,-50.47 -8.2,13.61 -7.17,40.83 -15.14,57.63 -34.71,73.26 -108.98,60 -164.66,61.33 -43.54,69.55 -88.12,62.65 -184.32,62.65l-498.5 0c-90.06,0 -138.18,8.68 -182.07,-61.04 -39.71,-6.69 -132.07,14.24 -166.34,-63.54 -9.13,-20.72 -7.67,-34.71 -10.03,-42.39l-5.26 -10.81c-0.37,-2.17 -1.41,-2.51 -2.39,-3.57 -5.53,15.44 -15.4,34.33 -24.1,50.85 -10.35,19.66 -14.05,34.7 -27.41,45.35z"/>
   <path class="fil2" d="M2248.74 2160.24c0.12,75.93 -7.06,341.27 71.64,371.19 33.72,7.57 135.43,-17.95 170.33,-24.91 51.15,-10.2 112.92,-18.42 160.55,-29.87 -9.88,-155.58 -17.38,-295.39 -8.26,-450.48 1.89,-32.07 13.7,-103.82 7.84,-130.08 -34.23,-10.12 -224.29,-40 -277.46,-51.65 -44.1,-9.66 -59.71,-7.83 -80.05,17.1 -39.84,48.79 -44.7,232.18 -44.59,298.7z"/>
   <path class="fil2" d="M3420.64 2330.93c0,33.79 -13.69,114.53 -6.89,140.17 64.91,3.08 134.41,3.26 197.69,8.74 129.2,11.2 109.75,-0.68 146.11,-37.22 68.15,-68.49 51.92,-166.57 51.92,-253.93 0,-91.62 15.3,-187.73 -50.57,-259.03 -48.54,-52.53 -44.2,-40.39 -147.5,-37.36 -64.67,1.9 -130.54,7.83 -195.73,7.83l4.97 430.8z"/>
   <path class="fil3" d="M1271.98 970.86c81.05,-2.47 144.78,17.28 160.38,-33.57 4.16,-13.56 11.58,-38.24 8.54,-46.23 2.33,48.08 1.73,95.35 1.72,143.48 -0.01,49.15 14.62,104.3 -41.72,106.97 -52.07,2.47 -120.44,9.53 -128.92,-26.56 -3.53,-14.98 -2.84,-127.26 0,-144.09zm-1154.52 -72.26c24.1,103.58 27.32,62.9 167.42,72.68 3.46,18.64 4.28,121.21 1.35,140.36 -6.52,42.69 -85.62,30.95 -125.71,29.96 -26.97,-0.67 -41.18,-8.21 -44.73,-30.32l1.67 -212.68zm351.63 117.19l-0.89 -44.75 619.5 -0.47 3.11 43.59 -621.72 1.63zm-14.88 -45l2.93 31.76 -151.35 -0.94c-7.06,-43.18 12.51,-31.35 54.41,-31.17 31.31,0.14 62.72,0.36 94.01,0.35zm648.32 31.17l-0.25 -30.33 148.92 -1.15c4.24,17.63 4.23,19.01 -2.35,29.7l-146.32 1.78zm-707.88 -406.79c206.66,-37.02 559.35,-22.87 768.65,-0.7 -3.99,3.98 -2.66,2.62 -8.28,6.35 -5.48,3.64 -3.65,1.6 -8.29,4.95 -21.95,15.87 -10.65,32.02 14.39,39.12 32.99,9.37 64.14,11.24 99.8,6.94 83.39,-10.07 99.96,-42.15 139.64,-72.19 10.96,7.78 29.7,29.6 38.6,40.8 15.1,18.99 6.54,36.72 4.12,64.47 -7.32,83.97 -8.55,130.7 -21.76,216.38 -11.6,75.25 -28.03,51.62 -229.03,51.73l-905.97 0.07c-35.75,-0.13 -125.9,12.2 -141.18,-13.54 -16.85,-28.37 -27.7,-222.37 -31.6,-262.64 -2.85,-29.53 -10.46,-38.2 6.7,-58.11 11.05,-12.81 23.22,-28.38 36.03,-38.84 20.3,13.71 27.27,28.72 58.49,46.3 72.9,41.03 211.99,33.19 207.66,-5.45 -1.77,-15.72 -16.76,-15.8 -27.97,-25.64zm1014.84 -27.98l9.9 -28.25c0.22,-1.11 0.25,-2.36 0.46,-3.38l2.39 -7.94c20.11,20.91 33.84,49.93 30.25,84.67 -15.28,-6.45 -36.09,-32.55 -43,-45.1zm-1303.99 44.63c-4.73,-39.6 11.36,-57.08 28.5,-85.05 5.67,7.18 0.96,-2.19 4.06,8.61 0.68,2.35 0.84,5.83 2.16,10.56 7.03,25.15 16.99,14.62 -10.33,45.08 -8.66,9.66 -12.64,16.78 -24.39,20.8zm47.34 -77.15c17.79,-5.41 106.08,9.33 140.34,26.47 25.76,12.88 104.48,45.8 116.96,62.94 -29.81,29.01 -127.28,16.81 -162.04,4.18 -30.61,-11.12 -103.84,-58.66 -95.26,-93.59zm995.56 89.41c9.05,-16.3 37.02,-24.23 56.59,-33.5 18.72,-8.87 40.19,-19.83 59.29,-29.38 32.28,-16.15 121.71,-33.37 143.23,-25.27 -3.58,80.22 -200.96,142 -259.11,88.15zm179.61 -94.88l15.78 -19.52c7.29,-7.06 7.63,-6.91 13.77,-15.56l21.33 -42.05c10.64,7.71 35.74,39.62 33.77,58.22 -1.54,14.48 -13.34,10.83 -32.57,12.95 -17.51,1.93 -33.13,4.94 -52.08,5.96zm-1149.86 -76.83l20.73 38.66c11.15,17.01 19.37,20.5 30.74,38.49 -19.89,-1.36 -80.02,-3.63 -84.36,-16.52 -5.98,-17.78 25.87,-54.49 32.89,-60.63zm947.23 124.84c13.31,-45.2 137.51,-107.17 169.79,-129.3 20.5,-14.04 42.92,-37.05 57.71,-46.22 42.2,57.56 -24.1,111.56 -58.52,131.34 -25.78,14.81 -48.99,23.72 -73.46,36.19 -36.93,18.8 -47.25,17.89 -95.52,7.99zm-921.22 -173.67c13.93,5.04 39.73,32.04 57.97,44.15 38.02,25.24 153.24,80.56 169.89,129.74 -53.88,9.05 -58.38,10.83 -92.78,-6.8 -46.81,-23.98 -190.5,-78.26 -135.08,-167.09zm1213.74 66.08c-11.39,-5.04 -14.99,-10.8 -23.28,-28.42l13.1 -29.06c46.65,-2.97 35.49,19.9 10.18,57.48zm-1270.1 -57.31c22.79,24.12 16.61,37.15 -4.33,57.52 -1.8,-1.27 -57.23,-59.79 4.33,-57.52zm1179.67 -2.22c-17.67,10.57 -32.04,25.49 -53.81,38.07 -20.7,11.96 -42.71,23.19 -62.56,35.1 -34.65,20.77 -84.29,62.67 -100.23,92.31 -45.14,0.4 -108.67,-7.71 -156.72,-10.57 -138.88,-8.25 -369.09,0.36 -502.91,11.19 -0.85,-0.68 -2.08,-2.84 -2.44,-2.14l-8.72 -8.78c-65.89,-75.59 -71.38,-65.62 -153.61,-116.02 -23.44,-14.36 -37.59,-27.52 -56.14,-40.21 6.26,-94.73 72.29,-245.37 138,-272.95 49.65,-20.84 332.04,-23.19 408.02,-23.19 75.1,0 355.4,1.88 409.09,22.02 46.82,17.57 75.33,69.53 95.47,113.72 17.2,37.73 45.65,115.9 46.56,161.45zm194.28 -20.96c-8.42,16.22 -46.85,32.36 -69.57,23.9 -41.19,-15.34 -68.66,-16.76 -55.14,-47.29 21.3,-48.13 150.71,-26.69 124.71,23.39zm-1360.8 -0.76c-8.56,15.67 -18.61,9.23 -36.2,15.47 -16.26,5.78 -14.32,13.09 -36.31,11.59 -25.07,-1.71 -63.91,-19.02 -51.37,-48.96 21.2,-50.66 149.96,-25.86 123.88,21.9zm-96.62 -58.47c-10.37,8.8 -57.58,22.89 -38.55,63.07 12.86,27.15 44.29,29.98 78.68,36.89 9.94,16.56 28.01,43.47 25.82,60.13 -9.09,33.27 -43.21,67.46 -44.92,97.28 -2.13,37.1 11.51,82.93 11.64,122.05 0.3,88.05 -0.22,176.19 -0.15,264.26 0.14,152.73 -22.43,183.44 85.63,183.16 46.6,-0.13 96.4,9.38 115.18,-22.42 16.4,-27.75 0.23,-87.08 9.22,-121.6l144.36 -0.1c12.99,14.22 -4.38,9.59 17.34,14.86l619.88 -0.04c33.08,-7.48 -9.38,-12.32 34.24,-14.77l130.36 1.48c5.21,149.5 -21.62,146.71 152.11,142.73 58.4,-1.34 55.47,-39.01 55.44,-89.83 -0.08,-119.75 -4.24,-318.13 5.5,-422.59 6.14,-65.8 13.55,-62.44 -20.15,-115.81 -31.33,-49.62 -19.4,-48.52 6.62,-98.61 33.64,-7.84 70.14,-9.84 80.38,-39.59 22.42,-65.11 -105.49,-83.85 -141.34,-38.64 -30.95,39.03 24.92,50.67 -8.4,75.45 -10.28,-18.18 -30.48,-94.3 -66.56,-159.6 -91.46,-165.53 -102.19,-158.08 -301.84,-165.92 -152.25,-5.98 -316.06,-6.56 -468.3,-0.16 -188.63,7.94 -213.5,-6.45 -304.1,163.78 -26.44,49.67 -65.87,156.18 -68.61,160.22 -34.76,-28.31 35.91,-48.82 -19.51,-84.1 -23.19,-14.77 -55.33,-15.09 -89.97,-11.58z"/>
   <path class="fil4" d="M106.95 2521.93l-0.1 -204.85c1.33,1.02 2.27,1.4 2.61,3.38l8 22.54c23.07,116.09 42.67,69.26 159.3,82.25 1.74,29.42 0.65,59.08 0.82,88.57 0.19,31.82 2.97,58.87 -30.35,63.94 -18.58,2.83 -78.1,1.26 -99.77,0.7 -41.2,-1.07 -40.51,-21.61 -40.51,-56.53zm1173.56 -96.76c38.41,-5.36 108.82,10.4 135.83,-14.13 18.4,-16.71 27.84,-81.65 34.48,-111.11 5.1,42.06 1.48,100.87 1.53,144.79 0.02,29.57 11.37,118.03 -19.98,130.62 -20.9,8.4 -131.72,7.5 -144.7,-8.65 -13.76,-17.1 -7.88,-111.68 -7.16,-141.52zm-169.38 -0.77c-14.63,26.4 -130.83,25.85 -98.65,-30.03 15.47,-26.86 128.38,-23.66 98.65,30.03zm-670.54 -8.13c-5.44,-28.94 17.78,-36.21 45.11,-36.67 29.48,-0.51 56.89,-1.82 60.05,25.28 3.83,32.93 -20.15,33.94 -46.65,34.08 -28.13,0.15 -53.84,2.14 -58.51,-22.69zm-15.82 -9.76c-54.3,-1.18 -109.83,-0.17 -164.26,-0.17 -54.76,0 -115.41,14.44 -118.28,-40.22 43.39,-6.96 41.82,9.17 70.54,-18.94 52.24,-51.14 113.02,-76.38 195.11,-76.57l736.97 -0.02c59.73,0.15 101.2,11.23 144.56,34.65 93.41,50.44 27.3,57.79 124.45,59.35 3.31,57.55 -69.62,41.79 -117.33,41.73 -55.88,-0.07 -112.99,-0.96 -168.71,0.28 -15.51,-36.46 -13.95,-37.64 -65.37,-37.74 -66.45,-0.12 -51.1,7.84 -69.36,36.68l-432.46 0.84c-14.04,-37.97 -21.7,-37.46 -66,-37.47 -54.76,-0.01 -49.42,0.89 -69.86,37.6zm-316.07 -408.81c15.25,-9.78 40.68,-79.44 57.36,-105.24 56.87,-87.98 14.06,-10.3 55.92,-105.78 25.17,-57.44 83.67,-174.77 123.72,-203.28 9.2,-6.38 9.56,-3.75 23.73,-10.26 61.66,-0.99 137.13,-10.38 204.49,-12.84 173.43,-6.35 362.92,-5.48 536.25,6.98 17.74,1.28 59.68,0.49 74.19,7.87 8.26,4.2 8.84,11.59 10.09,8.33 0.22,-0.58 1.06,1.23 1.73,1.71 3.97,-4.12 0.32,-8.37 14.43,-4.99 0.58,0.14 2.52,2.42 2.95,1.51 0.47,-0.98 2.25,0.97 3.11,1.78 7.27,12.7 23.95,27.78 34.93,46.03 33.93,56.39 60.41,97.69 86.81,162.65 42.56,104.76 11.43,32.79 58.03,107.39l53.44 105.59c2.91,1.78 4.92,8.46 5.59,16.36 3.51,41.64 -6.25,70.96 -6.25,71.06 0.08,45.57 7.87,83.93 -2.8,135.13 -5.03,24.13 -19.74,106.95 -28.52,123.29 -69.73,9.8 -42.34,-10.16 -121.57,-56.43 -40.04,-23.37 -89.8,-36.01 -147.13,-35.86l-737.05 0.12c-82.67,-0.29 -144.47,21.73 -199.63,71.76 -22.9,20.78 -26.81,27.95 -73.39,20.12 -10.31,-24.02 -20.91,-91.28 -27.24,-120.03 -10.13,-46.06 -3.74,-100.79 -0.22,-143.29 -4.39,-25.29 1.27,9.25 -8.59,-13.72 -3.18,-7.41 -9.79,-63.76 5.62,-75.96zm1327.49 -68.73c-31.31,-30.67 -15.8,-47.98 -9.26,-61.01l34.63 12.72 -25.37 48.29zm-1306.12 -60.64l12.95 23.66 -16.45 36.81c-12.11,-6.69 -11.78,-10.15 -18.19,-24.21 -3.81,-8.34 -7.99,-15.47 -10.37,-25.15l32.06 -11.11zm1417.86 -21.03c-31.91,9.45 -8.88,11.64 -34.84,20.06 -17.63,5.71 -54.89,5.3 -73.48,-2.98 -19.98,-8.9 -31.52,-23.22 -24.11,-47.04 7.52,-24.19 51.48,-34.33 84.29,-27.75 53.72,10.77 41.98,17.7 48.14,57.71zm-1495.5 -56.86c26.58,-2.5 77.31,-5.73 89.6,26.59 0.48,1.25 1.57,5.26 1.8,6.66 1.49,9.35 -1.06,22.02 -7.61,29.09 -10.97,11.85 -1.58,3.22 -16.77,8.83 -1.43,0.53 -17.93,6.72 -18.38,6.82 -9.72,2.3 -39.55,1.2 -49.62,-0.16 -56.7,-7.66 -54.86,-72.55 0.98,-77.83zm165.6 -44.7c-10.69,37.34 -37.82,104.05 -65.89,130.65 -19.92,-18.48 -6.48,-14.09 -0.58,-34.23 14.74,-50.33 -56.69,-72.12 -105.87,-58.44 -73.54,20.45 -56.17,96.8 36.78,96.61 6.59,15.38 14.01,29.36 22.54,43.76 10.57,17.87 16.48,21.94 4.67,41.55 -29.94,49.7 -19.53,38.95 -21.36,105.18 1.55,141.49 0.52,284.81 -0.02,426.73 -0.42,110.59 11.11,97.69 124.54,98.29 105.85,0.56 79.58,-34.32 84.06,-139.22l964.21 1.06c4.48,144.9 -15.03,142.63 152.73,138.3 56.26,-1.45 57.16,-36.79 56.93,-86.24l0.07 -414.52c-0.3,-65.39 9.09,-82.23 -17.58,-122.8 -21.08,-32.07 -9.14,-25.2 22.21,-91.18 106.8,-6.63 100.99,-84.08 32.97,-98.76 -38.2,-8.25 -76.1,1.59 -94.04,20.89 -32.42,34.86 19.66,50.5 -9.5,72.63 -37.06,-41.86 -46.96,-88.3 -71.64,-140.13 -23.2,-48.74 -51.41,-93.75 -78,-134.32 -35.87,-54.72 -87.63,-49.84 -166.86,-53.13 -226.19,-9.37 -416.86,-13.28 -646,1.28 -89.67,5.69 -106.22,0.84 -149.96,67.61l-74.41 128.43z"/>
   <path class="fil2" d="M324.95 1783.82c93.44,21.6 829,25.49 907.87,0.02 4.2,-21.85 -6.25,-126.87 -19.86,-143.66l-323.84 -13.25c-4.63,7.49 -0.52,1.31 -4.18,9.71 -2.59,5.93 -0.41,3.94 -4.55,11.65 -21.86,5.79 -182.5,5.93 -203.74,-0.17l-7.06 -16.99c-0.3,-0.59 -0.91,-1.87 -1.61,-2.66 -75.95,1.14 -239.78,2.36 -312.21,9.64 -21.85,2.19 -17.43,14.99 -21.28,38.65 -4.45,27.32 -13.82,81.51 -9.54,107.06z"/>
   <path class="fil5" d="M3923.57 1247.88c-71.64,-3.07 -134.14,-44.19 -156.02,-70.28 21.61,2.07 95.25,7.79 111.66,12.38 22.23,6.22 35.68,39.19 44.36,57.9zm-2117.05 -12.66c10,-15.2 0.32,-5.57 17.19,-15.73l73.21 -35.11c33.15,-12.94 89.91,-20.65 125.56,-3.54 -48.46,25.31 -144.25,44.92 -215.96,54.38zm1418.08 208.67c-6.11,0.47 -305.15,5.99 -316,-2.78 -30.99,-25.03 9.92,-266.43 12.7,-304.77l345.57 -3.93c4.86,5.51 -0.85,23.74 71.85,18.8 62.56,-4.24 26.58,-23.26 66.2,-15.89 14.91,51.63 -134.86,237.42 -180.32,308.57zm666.39 -335.52l-4.34 66.57c-23.76,2.41 -72.3,-5.84 -99.73,-8.49 -59.29,-5.72 -35.72,-9.63 -67.48,-29.36l171.55 -28.72zm-1022.95 29.92l41.52 -0.96c-4.64,49.11 -15.12,93.73 -17.93,145.1 -2.47,45.44 7.62,124.02 -0.31,162.04 -63.42,2.08 -448.23,7.32 -476.03,-3.33 -31.18,-63.71 -20.19,-211.75 -2.33,-282.68l345.88 -12.04c0.04,0.05 4.28,4.29 4.52,4.46 27.45,20.18 129.2,4.63 104.68,-12.59zm-891.53 23.51c104.87,-42.45 301.24,-46.01 437.25,-50.32l-12.39 35.46c-71.37,5.87 -144.13,8.59 -216.89,14.4 -67.94,5.43 -142.81,16.32 -207.97,0.46zm552.08 -45.67c41.97,-16.61 340.14,-21.69 391.53,-22.79 -5.14,45.45 -13.15,33.04 -82,35.56l-342.1 12.44 32.57 -25.21zm845.44 -38.82c12.96,9.65 21.89,17.16 28.61,44.39l-476.5 3.12 9.91 -31.38 437.98 -16.13zm-886.97 49.68c-3.81,-7.17 -3.19,-8.97 1.68,-14.48 12.96,-14.67 7.19,-5.97 16.17,-8.08 11.75,14.13 -1.52,19.66 -17.85,22.56zm-61.54 -15.81l43.68 -1.16c2.39,5.33 12.3,27.43 14.63,34l-67.99 0.21 9.68 -33.05zm115.3 -10.67c-30.48,2.64 -79.04,-39.43 14.83,-43.78l-14.83 43.78zm426.11 -184.94c79.12,-4.29 200.99,14.31 272.8,28.62 61.52,12.25 52.49,14.24 78.49,51.5 15,21.51 39.67,50.88 50,72.55l-432.83 12.68 31.54 -165.35zm413.06 136.94c-12,-8.06 -55.35,-66.22 -58.48,-76.5l154.37 46.34c-21.61,29.92 -35.59,28.37 -95.89,30.16zm-858.98 -7.69c11.27,-1.22 20.04,-9.62 37.31,-18.29l65.23 -28.39c75.14,-28.21 214.44,-72.47 296.57,-64.93l-46.04 136.26 -309.47 11.01 2.34 -32.26 -45.94 -3.4zm-113.37 56.11c14.54,-16.75 75.1,-49.78 102.15,-67.18 100.85,-64.9 290.83,-116.63 447.94,-119.48l-33.11 166.54c-23.2,6.48 -338.39,18.11 -363.92,13.45 25.8,-8.99 273.51,-11.27 326.63,-14.06l44.54 -157.22c-146.62,-13.93 -459.24,103.19 -504.31,172.7l57.82 -0.18c-19.62,7.72 -49.37,5.45 -77.74,5.43zm275.86 -187.7c56.12,-7.03 107.52,-16.92 167.07,-23.49 65.2,-7.2 129.87,-8.66 196.06,-7.6 142.59,2.29 222.72,21.82 347.38,40.59 0.7,1.11 0.83,2.67 1.12,3.56 9.76,29.99 13.22,24.75 102.97,52.33 43.16,13.25 81.26,26.01 126.84,39.51 41.06,12.16 86.42,27.65 129.54,37.81 16.53,3.89 93.83,6.75 141.24,23.3 -5.92,23.76 -64.46,24.74 -95.23,30.22 -31.44,5.6 -81.24,17.16 -110.87,18.45 -41.56,1.81 -246.07,-0.45 -272.07,-6.18l-17.66 -44.14c40.14,-1.96 57.55,-4.54 79.47,-20.08 16.17,-11.46 34.12,-26.45 28.44,-47.36 -21.6,-20.39 -154.18,-53.05 -201.81,-62.71 -77.21,-15.66 -148.12,-29.99 -232.39,-38.06 -170.92,-16.36 -335.24,10.68 -462.05,63.88 -68.11,28.57 -110.8,53.54 -163.36,83.42 -17.14,9.74 -56.91,42.6 -75.41,45.27 -100.88,14.58 -218.04,-14.5 -470.37,69.93 -52.43,17.55 -62.86,33.97 -85.78,35.89 3.42,-22.01 159.03,-78.89 207.06,-90.71 45.02,-11.09 85.24,-19.09 135.88,-25.3 25.16,-3.09 49.6,-5.03 75.23,-5.28 42.52,-0.42 30.63,8.81 57.15,12.88 63.71,9.78 139.32,-57.39 206.61,-89.45 32.28,-15.39 66.47,-32.36 102.66,-47.87 109.05,-46.74 62.48,-7.08 82.28,-48.81zm-904.87 551.96c-20.11,-30.12 -9.46,-6.01 2.35,-13.95 -5.68,-13.68 -11.38,-49.03 -10.62,-63.41 2.76,-51.51 77.32,-8.22 5.66,-162.29l27.97 -15.44c0.42,18.35 -10.26,7.1 -15.23,33.49 47.43,3.63 93.8,-11.7 132.77,-18.37 13.87,8.38 83.93,62.83 86.07,74.34l18.74 -12.38c-21.55,-6.2 -75.06,-50.48 -85.73,-65.7 27.69,-12.94 103.42,-39.75 140.68,-42.51l316.95 -20.89c-1.27,45.85 -34.77,250.34 11.43,295.13 51.46,6.04 777.44,5.75 821.49,-0.55 19.56,-22.81 70.24,-95.88 79.92,-117.64l0.47 5.76c9.02,-5.1 11.77,-9.64 14.43,-13.13 9.88,-12.97 8.88,-8.93 7.37,-23.05l75.06 -116.31c7.47,-16.36 6.4,-39.18 13.25,-53.65 51.46,-3.84 124.8,0.79 178.58,1.73 84.95,1.48 92.23,-6.84 133.13,32.28 0.09,0.22 -20.74,99.58 -154.48,101.94l24.82 16.99c0.71,0.67 1.69,2.02 2.68,2.96 -4.85,-21.02 -10.11,-7.53 44.35,-21.55 34.62,-8.9 55.73,-30.9 71.03,-54.24 8.86,-13.52 12.19,-25.57 27.29,-34.22 91.38,64.67 58.55,48.75 173.48,80.39 2.34,13.67 0.44,24.41 0.78,37.85 0.61,24.15 8.35,22.54 10.8,41.55 -45.68,20.19 -57.93,51.01 -93.45,60.94 -33.73,9.44 -138.37,19.5 -172.33,9.17 6.11,13.34 -1.15,5.02 1.28,19l5.77 15.54 -0.45 -20.47c43.11,-0.52 129.86,-3.01 167.18,-12.92 19.48,-5.18 92.05,-60.1 92.81,-60.98l1.24 25.7c0.57,1.21 1.65,1.56 1.79,3.61 0.14,2.1 1.25,2.72 1.39,3.8 0.42,3.19 0.5,10.12 0.24,13.28 11.45,-8.17 15.46,-6.84 14.21,-41.51 -0.79,-22.09 -5.7,-25.16 -10.56,-42.03 -9.96,-34.6 9.43,-52.87 -13.58,-89.02 -28.36,-44.56 -31.89,-65.24 -25.24,-116.55 2.39,-18.45 12.31,-19.56 11.44,-40.48 -31.15,-9.23 -65.47,-13.72 -96.54,-19.9 -37.18,-7.4 -59.59,-18.06 -88.56,-28.96 -165.25,-62.11 -312.55,-115.4 -501.2,-138.11l-41.04 -5.4c-14.36,-3.22 -6.87,-1.46 -12.76,-3.89 -39.72,6.87 -97.3,-3.06 -141.01,-3.75 -48.37,-0.75 -95.01,1.46 -142.96,4.6 -79.76,5.21 -184.13,11.84 -246.62,38.27l-186.74 75.99c-58.74,25.92 -126.55,59.48 -173.77,87.84 -22.71,0.56 -36.17,-3.7 -66,-2.13 -20.52,1.08 -42.71,3.16 -64.55,5.39 -105.15,10.72 -224.45,46.12 -302.93,87.83 -123.47,65.62 -107.24,41.08 -96.03,214.79 1.72,26.64 -5.51,69.16 23.48,85.22z"/>
   <path class="fil1" d="M1177.87 2348.61l-55.01 -33.59c-14.37,-10.37 -9.65,-2.49 -13.18,-16.61 33.2,-30.26 190.45,6.84 190.21,51.9 -20.81,1.8 -105.42,2.84 -122.02,-1.7zm-830.67 2.36l-89.52 -0.2c0.14,-39.1 140.34,-86.24 190.17,-52.36 -4.03,16.54 -11.36,15.11 -41.24,35.4 -19.68,13.37 -27.61,17.13 -59.41,17.16zm77.57 55.54c20.44,-36.71 15.1,-37.61 69.86,-37.6 44.3,0.01 51.96,-0.5 66,37.47l432.46 -0.84c18.26,-28.84 2.91,-36.8 69.36,-36.68 51.42,0.1 49.86,1.28 65.37,37.74 55.72,-1.24 112.83,-0.35 168.71,-0.28 47.71,0.06 120.64,15.82 117.33,-41.73 -97.15,-1.56 -31.04,-8.91 -124.45,-59.35 -43.36,-23.42 -84.83,-34.5 -144.56,-34.65l-736.97 0.02c-82.09,0.19 -142.87,25.43 -195.11,76.57 -28.72,28.11 -27.15,11.98 -70.54,18.94 2.87,54.66 63.52,40.22 118.28,40.22 54.43,0 109.96,-1.01 164.26,0.17z"/>
   <path class="fil6" d="M2127.12 583.44c-15.46,-126.29 125.41,-234.5 242.11,-135.12 29.04,24.73 44.79,60.89 49.61,94.87 4.87,34.32 -3.9,78.1 -24.71,107.82 -86.76,123.88 -250.98,63.51 -267.01,-67.57zm1586.25 4.07c-4.51,36.03 -22.87,67.73 -49.99,92.07 -109.88,98.61 -261.99,-6.89 -240.58,-142.25 5.09,-32.19 24.34,-67.62 50.25,-89.67 114.43,-97.35 256.82,7.92 240.32,139.85zm-1889.8 -105.19c37.15,13.71 54.01,49.06 92.24,59.99 37.24,10.65 118.01,12.45 164.05,15.06l-3.2 46.55c-33.96,8.8 -155.12,-7.19 -181.7,-18.61 -44.08,-18.94 -70.08,-54.36 -71.39,-102.99zm14.19 -89.88c135.56,-33.88 94.45,-30.23 173.07,-81.29 21.71,17.33 31.33,48.59 51.45,66.49 32.3,28.7 50.18,18.13 89.24,35.12 -14.61,23.65 -30.68,32.41 -44.34,62.21 -8.7,18.98 -14.33,56.11 -24.92,71.24 -56.12,2.02 -153.13,0.13 -190.48,-27.74 -67.7,-50.51 -65.32,-41.53 -58.22,-67.19l4.2 -58.84zm-2.26 -10.71c7.14,-16.26 24.1,-52.44 42.65,-59.14 10.73,-3.88 93.16,-11.61 110.93,-13.16 -14.49,29 -88.06,66.47 -153.58,72.3zm1596.58 -153.82l9.78 -0.39c26.64,-2.99 10.81,-4.19 30.36,-8.02 50.61,-9.92 188.51,17.83 236.38,30.02 39.17,9.98 73.32,23.64 106.19,37.37 32.87,13.73 66.5,33.65 94.77,44.38l13.89 7.38c9.44,12.03 9.94,7.83 23.98,17.21 -12.1,34.66 -51.5,90.26 -17.27,128.17 17.59,19.47 23.66,10.02 22.23,38.14 -1.87,37.11 4.25,68.07 -44.01,76.37 -39.36,6.78 -100.89,12.09 -142.59,13.87 -2.25,-81.03 -4.18,-106.38 -44.49,-177.62l-22.56 -18.57c-0.77,-0.69 -2.3,-1.86 -3.22,-2.9 -7.71,-35.26 -156.02,-95.49 -246.03,-10.04 -63.14,59.93 -79.57,130.17 -75.42,217.32l-913.25 3.06c0.64,-67.22 -5.78,-97.53 -23.97,-158.05 -21.59,-6.02 -7.59,-5.3 -16.88,-18.18 -19.65,-27.29 -17.95,-1.26 -19.36,-27.52 -28.08,-40.3 -121.08,-72.57 -218.62,-24.36 -23.9,11.81 -22.05,8.51 -56.93,-0.04 -64.68,-15.85 -74.18,-41.07 -102.8,-92.48 10.22,-12.34 25.36,-23.88 32.69,-32.26 12.34,-13.75 -3.88,-5.23 26.92,-8.67l80.44 2.64c-17.28,2.87 -92.36,6.06 -115.74,-5.22 -74.99,-23.53 -173.79,-16.4 -182.85,-49.16 65.25,-20.37 118.71,-17.2 146.46,-25.16l246.91 -75.62c120.7,-38.14 80.61,-22.12 99,-54.25 216.84,-57.11 474.4,-48.35 700.73,-10.28 0.26,28.61 -1.03,17.99 35.93,31.19 47.45,16.95 102.56,43.3 143.95,64.77 15.85,8.22 31.26,16.65 46.72,24.88 16.01,8.51 24.79,15.82 40.6,24.96 26.32,15.22 53.45,39.86 108.06,37.06zm-357.63 -172.78c12.84,-8.91 29.32,1.64 48.14,9.5 84.49,35.26 203.08,82.98 277.18,127.48 21.98,13.2 34.14,16.76 43.04,27.59 -67.6,-0.3 -73.66,-20.77 -105.81,-37.68l-42.03 -24.29c-11.51,-8.23 -22.56,-14.97 -38.53,-22.3 -30.39,-13.94 -58.7,-29.55 -90.9,-43.95l-91.09 -36.35zm-1220.84 177.37c15.85,10.27 68.28,15.3 90.4,19.02 29.38,4.95 70.04,9.14 92.53,19 -32.09,31.49 -18.7,22.25 -80.5,29.91l-101.84 18.36c-26.83,65.56 -30.48,8.12 -32.29,106.33 -0.86,46.47 -32.39,41.9 -0.36,117.66 6.95,5.21 27.63,29.4 38.44,38.1 37.68,30.35 84.85,31.52 149.02,36.57 44.37,3.49 57.41,6.58 87.52,-4.24 0.83,-0.3 2.39,-1.21 3.78,-1.51 14.8,14.83 15.32,6.6 28.16,29.45 42.56,75.72 130.23,123.4 224.68,70.17 35.26,-19.86 34.29,-34.76 62.47,-60.94l1011.99 0.26c54.14,85.55 154.36,107.36 230.21,53.37 71.49,-50.89 8.95,-46 102.05,-64.62 42.44,-8.49 108.12,-26.63 157.21,-25.69 28.38,-13.57 39.01,-8.95 44.85,-42.68 7.44,-42.93 17.45,-176.02 6.47,-210.67 -5.2,-16.42 -30.62,-29.16 -49.86,-38.96 -20.92,-10.66 -40.04,-20.4 -61.69,-31.17 -42.37,-21.07 -82.43,-35.47 -133.51,-50.86 -60.8,-18.33 -148.47,-32.2 -218.37,-34.94 -93.91,-3.68 -9.05,24.66 -105.3,-24.64 -42.62,-21.83 -82.2,-40.56 -125.14,-60.56 -89.24,-41.56 -174.86,-83.11 -277.61,-98.44 -198.25,-29.59 -371.95,-27.5 -569.14,5.78 -86.98,14.67 -227.65,58.99 -297.09,86.08 -44.35,17.3 -91.31,32.48 -134.95,50.15 -54.59,22.09 -105.54,21.15 -153.45,38.25l11.32 31.46z"/>
   <path class="fil7" d="M2543.16 2683.01c-25.55,-5.08 -43.07,-17.06 -55.34,-31.23 -11.73,-13.56 -28.22,-38.07 -10.22,-51.42 43.4,-32.2 62.58,60.93 65.56,82.65zm364.13 -52.26l10.29 -41.22c28.28,-4.94 327.31,-6.29 403.18,-8.12 52.49,-1.26 65.58,11.79 61.76,51.03 -8.91,-0.02 -23.56,0.67 -31.63,-0.9 -20.09,-3.92 -51.18,-34.53 -121.63,-5.32 -27.94,11.58 -274.1,4.01 -321.97,4.53zm-397.04 -46.97l394.46 3.82 -12.74 42.08c-42.36,0.15 -14.92,1.6 -41.79,-12.93 -15.11,10.58 -13.41,16.77 -78.49,10.96 1.29,0.11 57.85,-4.92 71.35,-13.82 -22.14,-0.77 -47.48,-2.73 -68.9,2.15 -46.07,10.5 17.51,12.48 -78.73,13.11l-155.04 1.97c-8.92,-24.8 -8.53,-33.34 -30.12,-47.34zm-512.71 -14.88c201.45,20.65 343.61,4.49 484.08,14.72 -35.74,20.13 -14.36,21.09 -25.78,49.69l-391.33 -11.81c-42.48,-2.73 -41.64,-31.67 -66.97,-52.6zm971.8 9.4l22.52 -65.87 233.93 7.42c24.73,2.21 19.66,0.02 35.69,13.91 15.93,13.8 33.82,25.32 38.12,39.05l-330.26 5.49zm-16.54 -2.17l-30.48 1.79 26.02 -53.69c12.47,-18.87 -1.01,-8.26 20.9,-11.97 6.11,5.33 17.78,-10.79 0.16,33.23 -5.93,14.8 -4.32,18.71 -16.6,30.64zm351.15 -49.31l171.08 14.42c-8.13,14.69 -123.76,58.61 -171.08,-14.42zm-38.15 -2.76c28.9,2.66 62.79,30.16 73.59,47.56 -37.88,-0.24 -27.37,-6.62 -57.85,-31.02 -11.93,-9.55 -7.7,-4.84 -15.74,-16.54zm-403.98 53.89c-58.56,-0.13 -413.14,0.91 -438.15,-7.25 34.92,-15.7 164.25,-36.16 214.98,-42.7 91.2,-11.75 172.25,-10.57 264.54,-17.41 -6.75,22.87 -25.5,49.3 -41.37,67.36zm47.57 -1.1l-31.05 1.26c1.93,-16.4 12.14,-23.86 21.85,-38.8 11.94,-18.34 6.4,-25.43 40.48,-26.92l-31.28 64.46zm-1099.1 -127.17c90.5,65.57 150.42,87.17 210.71,165.38 -96.88,-19.09 -174.71,-102.5 -210.71,-165.38zm1493.83 -604.41c12.08,-15.95 34.76,-31.51 58.01,-43.49 11.17,-2.33 69.18,8.79 87.03,14.01l28.47 11.21 -173.51 18.27zm-38.46 3.14c11.65,-19.54 41.09,-46.65 74.06,-48.79 -10.99,20.11 -3.29,7.69 -30.63,27.76 -15.22,11.17 -15.61,17.83 -43.43,21.03zm-389.93 -55.17c43.76,1.39 32.22,-0.74 45.62,25.48 7.99,15.63 16.55,24.87 19.75,41.73 -34.47,-1.98 -28.02,-7.84 -40.74,-26.81 -9.76,-14.56 -19.43,-23.85 -24.63,-40.4zm117.32 63.87c-0.89,-1.04 -1.88,-3.87 -2.23,-3.27 -0.74,1.25 -20.02,-38.07 -22.43,-58.42 74,-3.92 251.49,2.5 332.97,3.94 -7.07,15.04 -23.8,25.08 -38.31,37.37 -24.26,20.54 -32.1,14.81 -77,17.07 -51.6,2.61 -144.89,8.57 -193,3.31zm-72.19 -63.39l36.78 0.89 22.69 62.47c-32.75,4.26 -27.13,-0.78 -38.86,-23.76 -4.82,-9.44 -14.41,-31.56 -20.61,-39.6zm-501.99 7.91c47.97,-7.88 374.01,-8.17 445.36,-8.33l41.71 65.5c-131.63,2.2 -258.39,-9.19 -381.48,-33.12 -25.3,-4.92 -93.14,-22.84 -105.59,-24.05zm-423.69 2.24c52.89,-72.93 50.96,-50.45 194.01,-57.73 83.4,-4.25 188.78,-9.19 271.5,-7.2 -5.6,33.91 3.26,29.56 15.81,50.87 -81.42,0.38 -162.26,1.76 -245.42,1.93 -138.2,0.28 -107.55,-1.3 -235.9,12.13zm545.07 -62.49c24.66,-0.98 183.02,0.79 200.55,3.64 23.6,3.82 -2.03,4.81 34.1,11.47 72.49,13.37 82.02,-12.67 116.04,-14.42 8.02,14.88 17.13,27.19 10.2,41.95l-385.74 3.96c10.6,-13.02 17.75,-27.85 24.85,-46.6zm-729.74 181.44c6.06,-24.64 64.29,-84.37 81.92,-99.54 35.79,-30.79 69.91,-47.38 127.3,-66.33 -18.36,42.54 -109.49,95.52 -153.02,126.13 -16.35,11.49 -41.01,27.18 -56.2,39.74zm1572.07 -182.95c2,29.54 -3.47,35.43 -26.41,51.58 -83.68,1.26 -171.24,-4.01 -255.97,-4.9 -201.12,-2.11 -185.07,10.39 -194.08,-45.51 84.14,1.7 174.73,-0.69 259.58,-1.25 105.18,-0.7 35.88,12.95 106.75,17.03 85.07,4.9 28.18,-16.5 110.13,-16.95zm-1594.44 191.4c-9.19,-39.08 100.42,-167.61 225.64,-186.06 -1.36,0.73 -3.36,0.66 -4.07,2.17l-34.83 14.3c-39.9,16.47 -71.83,39.1 -98.65,63.1 -35.23,31.51 -63.26,67.9 -88.09,106.49zm710.82 -152.5c-37.2,-9.69 -30.2,-29.64 -15.3,-52.15 10.4,-15.71 32.26,-36.53 60.04,-36.06 -4.05,23.56 -17.33,75.65 -44.74,88.21zm-382.92 -55.14c-63.31,2.84 -97.83,-1.74 -162.15,23.54 -121.78,47.86 -202,155.94 -211.74,258.55 -4.44,46.81 -6.21,346.93 6.41,397.74 8.02,32.3 44.58,80.08 45.6,102.22 1.08,0.71 2.64,0.85 3.07,2.24l8.38 7.09c3.95,3.86 8.31,9.31 11.59,12.93 26.76,29.59 36.34,40.11 72.9,64.24 107.04,70.66 199.4,57.09 358.84,58.59 74.48,0.7 151.11,-4.05 221.43,-3.1 12.5,19.02 35.85,48.17 81.84,44.88 6.22,-21.36 -0.16,-26.26 -4.18,-46.92 284.62,-6.06 572.28,0.83 861.72,0.65 186.09,-0.12 371.23,10.42 476.23,-120.4 20.64,-25.72 59.51,-76.64 57.62,-109.02 2.22,-31.06 1.74,-5.39 -9.1,-16.83 4.74,12.6 2.54,16.87 -5.43,29.28l-31.04 35.92c-15.98,14.85 -13.15,7.47 -35.08,20.1l-3.93 -0.46c-14.59,8.39 -5.24,-1.22 -8.73,16.72l32.72 -8.41c21.44,-8.53 16.97,-9.41 18.35,-16.74 -4.39,11.71 -14.56,22.02 -24.71,32.35l-65.06 59.71c-15.32,13.67 -10.75,16.27 -26,23.13 -57.5,25.89 -67.65,25.35 -132.4,35.8 -80.6,13 -33.73,8.27 -136.26,8.27 15.34,-13.01 -8.31,-9.11 61.78,-17.32 17.2,-2.02 47.37,-4.02 65.57,-6.65l122.61 -16.67c-8.28,-22.21 5.05,-8.35 -18.69,-13.62 -70.75,27.68 -61.14,20.79 -168.14,31.76 -39.2,4.02 -155.33,20.81 -185.97,16.47 -0.8,-33.9 -4.75,-27.63 -18.64,-50.77 46.57,-6.18 116.72,-14.55 115.15,-40.71 -39.99,-17.85 -389.96,-32.68 -461.83,-33.98 -481.72,-8.7 -573.18,65.31 -672.38,67.1 -78.6,1.42 -288.72,4.03 -361.13,-14.67 -31.09,-8.03 -47.76,-26.63 -69.8,-41.39 -36.39,-24.37 -98.71,-60.88 -125.77,-89.2l-18.14 1.11c-17.08,7.5 -16.85,-19.32 -21.16,-45.41 -5.65,-34.19 -2.89,-153.87 -3.04,-193.06 -0.28,-72.58 -10.85,-186.01 18.63,-250.35l5.52 10.56 16.32 -2.89c23.89,-18.81 165.64,-120.87 192.45,-129.3 63.02,-19.8 293.81,-16.53 366.09,-15.68 40.51,0.47 156.42,31.47 204.33,39.86 237.89,41.65 573.91,30.23 826.45,7.15 33.4,-3.05 88.6,-2.69 104.93,-16.98 -6.84,-25.06 -77.75,-33.24 -115.94,-37.48 14.81,-26.47 18.85,-18.82 18.47,-53.74l42.37 3.28c57.14,8.2 11.38,-6.01 73.48,-5.73 28.44,0.12 59.08,-1.53 86.72,1.27l105.47 14.01c10.35,1.57 24.57,3.77 36.68,7.32 35.44,10.39 22.72,13.56 46.93,26.08l18.35 7.78c15.5,7.71 81.97,77.02 93.32,98.01 6.66,1.48 0.3,0.22 0.29,0.27l-3.14 12.06c11.84,7.76 -1.59,11.24 34.99,12.2 -30.29,-75.47 -98.1,-132.79 -181.25,-162.49 -102.63,-36.65 -249.43,-27.95 -374.78,-27.63 -137.58,0.35 -278.17,-1.78 -415.36,1.35 -127.6,2.92 -282.3,6.76 -408.83,-0.92 -3.13,-16.54 7.88,-23.07 3.54,-46.65 -48.08,-4.19 -66.91,22.2 -84.19,44.04 -52.22,2.12 -115.3,-3.78 -172.63,-2.96 -60.21,0.86 -120.3,1.59 -180.52,2.5z"/>
   <path class="fil0" d="M2868.04 1138.29c24.52,17.22 -77.23,32.77 -104.68,12.59 -0.24,-0.17 -4.48,-4.41 -4.52,-4.46l-345.88 12.04c-17.86,70.93 -28.85,218.97 2.33,282.68 27.8,10.65 412.61,5.41 476.03,3.33 7.93,-38.02 -2.16,-116.6 0.31,-162.04 2.81,-51.37 13.29,-95.99 17.93,-145.1l-41.52 0.96z"/>
   <path class="fil8" d="M363.62 2110.53l830.13 -1.13c-9.59,62.71 -135.6,50.95 -174.65,50.95 -69.4,0 -561.05,3.82 -591.9,-2.53 -35.42,-7.29 -50.62,-24.74 -63.58,-47.29zm852.4 -13.5l20.98 -123.83 140.1 -10.32c-0.8,54.94 -3.02,80.09 -35.22,109.9 -34.03,31.49 -75.25,25.22 -125.86,24.25zm-1035.37 -133.55l140.98 9.56 19 123.93c-52.85,2.06 -92.67,5.43 -125.5,-24.18 -30.2,-27.25 -33.17,-60.09 -34.48,-109.31zm1020.51 132.27l-845.28 1.57c-10.87,-26.65 -20.49,-92.9 -21.77,-123.16 39.91,1.82 77.46,5.49 117.43,8.04 48.81,3.11 30.96,25.46 80.81,45.65 39.92,16.17 189.16,8.5 244,8.5 53.6,0 208.04,6.74 245.74,-7.14 36.22,-13.35 43.04,-43.39 79.32,-46.59 40.25,-3.56 81.74,-5.07 121.87,-9.14 0.79,23.11 -12.52,102.92 -22.12,122.27zm-714.06 -118.39l33.31 -48.03 516.71 -0.48c11.47,17.48 25.45,32.06 33.93,48.51 -28.84,31.06 -52.59,46.7 -116.92,46.92l-346.85 0.02c-74.25,0.05 -83.49,-9.83 -120.18,-46.94zm750.94 -17.22c1.4,-16.61 3.02,-65.36 10.81,-78.85 34.94,0.56 97.73,8.86 126.41,22.92 6.6,53.15 6.56,45.58 -41.51,49.55 -30.17,2.5 -65.81,5.7 -95.71,6.38zm-1055.62 -55.93c30.5,-13.79 95.53,-23.92 131.08,-22.32l6.71 78.63 -139.19 -10.23 1.4 -46.08zm869.62 20.32c33.68,-20 127.49,-46.4 179.78,-42.46l-4.65 73.44c-15.03,10.61 -46.74,9.35 -69.45,10.69 -24.24,1.43 -49.99,7.11 -73.6,2.99 -9.31,-9.5 -27.06,-32.67 -32.08,-44.66zm-716.33 36.58c-8.18,-16.6 -10.8,-58.77 -7.83,-78.4 44.51,-3.3 149.13,21.07 179.36,42.82l-34.45 45.91 -137.08 -10.33zm-11.01 -162.53c35.9,1.54 69.69,9.33 109.37,10.4 185.24,4.99 393.26,2.1 580.7,2.09 39.47,0 76.83,-0.95 116.19,-2.31 27.58,-0.96 83.53,-11.22 102.78,-8.93 0.76,104.44 9.59,52.3 -113.11,85.05 -25.56,6.82 -73.69,30.09 -92.67,31.75l-502.81 -0.74c-17.28,-2.53 -63.36,-24.53 -91.93,-32.13 -36.89,-9.82 -71.39,-8.19 -108.01,-16.11l-0.51 -69.07zm0.25 -14.76c-4.28,-25.55 5.09,-79.74 9.54,-107.06 3.85,-23.66 -0.57,-36.46 21.28,-38.65 72.43,-7.28 236.26,-8.5 312.21,-9.64 0.7,0.79 1.31,2.07 1.61,2.66l7.06 16.99c21.24,6.1 181.88,5.96 203.74,0.17 4.14,-7.71 1.96,-5.72 4.55,-11.65 3.66,-8.4 -0.45,-2.22 4.18,-9.71l323.84 13.25c13.61,16.79 24.06,121.81 19.86,143.66 -78.87,25.47 -814.43,21.58 -907.87,-0.02zm20.75 -200.42c0.81,14.82 -14.14,42.34 -18.24,63.72 -21.73,113.15 -9.94,119.85 -15.59,220.62 -48.99,6.34 -104.47,9.14 -142.73,27.87 -3.52,79.5 4.88,51.57 -38.34,135.07 -8.66,16.72 -10.83,28.14 -23.86,37.76l1.76 -70.74c-15.41,12.2 -8.8,68.55 -5.62,75.96 9.86,22.97 4.2,-11.57 8.59,13.72 13.36,-10.65 17.06,-25.69 27.41,-45.35 8.7,-16.52 18.57,-35.41 24.1,-50.85 0.98,1.06 2.02,1.4 2.39,3.57l5.26 10.81c2.36,7.68 0.9,21.67 10.03,42.39 34.27,77.78 126.63,56.85 166.34,63.54 43.89,69.72 92.01,61.04 182.07,61.04l498.5 0c96.2,0 140.78,6.9 184.32,-62.65 55.68,-1.33 129.95,11.93 164.66,-61.33 7.97,-16.8 6.94,-44.02 15.14,-57.63 11.53,16.6 18.39,34 26.84,50.47 9.27,18.06 17.19,39.96 30.49,51.18 0,-0.1 9.76,-29.42 6.25,-71.06 -0.67,-7.9 -2.68,-14.58 -5.59,-16.36l2.42 66.8c-17.88,-14.34 -31.8,-53.27 -44.27,-77.11 -24.65,-47.14 -17.19,-44.03 -19.34,-100.15 -38.72,-15.32 -90.98,-23.32 -141.3,-26.02 -4.76,-16.5 -1.97,-59.09 -1.16,-78.24 1.18,-27.69 -2.21,-51.43 -5.73,-77.59 -3.28,-24.36 -6.29,-46.88 -10.91,-69.66 -12.03,-59.35 -30.65,-51.92 -12.92,-59.69 -0.86,-0.81 -2.64,-2.76 -3.11,-1.78 -0.43,0.91 -2.37,-1.37 -2.95,-1.51 -14.11,-3.38 -10.46,0.87 -14.43,4.99 4.84,17.4 10.26,18.61 12.78,41.25 -73.06,-2.15 -144.35,-8.77 -215.87,-9.04l-442.15 0.31c-68.27,1.02 -135.18,7.22 -203.36,8.67 2.66,-23.08 15.63,-34.5 21.85,-53.24 -14.17,6.51 -14.53,3.88 -23.73,10.26z"/>
   <path class="fil0" d="M2848.81 576.77l472.8 0.26c6.45,-53.21 33.51,-248.73 -2.87,-284.54 -24.56,-11.75 -279.37,-17.39 -331.64,-19.53 -1.1,0.91 -2.29,1.32 -2.83,2.96l-5.82 5.5c-0.88,0.66 -2.06,1.76 -3.08,2.43 -19.28,12.61 -76.55,13.51 -97.98,-3.23 -15.23,-11.89 12.64,-11.43 -43.44,-12.02 2.73,47.05 14.01,98.17 17.59,148.22 3.93,55.01 -2.33,105.86 -2.73,159.95z"/>
   <path class="fil0" d="M3224.6 1443.89c45.46,-71.15 195.23,-256.94 180.32,-308.57 -39.62,-7.37 -3.64,11.65 -66.2,15.89 -72.7,4.94 -66.99,-13.29 -71.85,-18.8l-345.57 3.93c-2.78,38.34 -43.69,279.74 -12.7,304.77 10.85,8.77 309.89,3.25 316,2.78z"/>
   <path class="fil0" d="M2522.01 575.09l310.31 1.99c24.91,-35.05 2.69,-277.39 -15.85,-307.97l-323.46 -3.76c-29.34,5.37 -7.59,15.61 -53.46,18.16 -14.87,0.83 -36.5,0.57 -49.37,-2.98 -43.13,-11.9 5.96,-13.09 -40.04,-15.06 -31.34,49.09 137.13,233.39 171.87,309.62z"/>
   <path class="fil9" d="M2666.77 2476.25c-31.42,-191.58 -5.43,-388.1 -1.19,-579.85l357.23 13.64 369.08 -8.4c12.91,16.45 9.83,46.75 11.02,67.48 1.34,23.22 3.38,46.92 4.29,69.37 3.8,93.44 6.9,360.35 -9.35,429.63 -25.15,4.39 -148.73,-2.88 -184.54,-4.3 -232.78,-9.22 -350.61,11.26 -546.54,12.43zm748.9 -576.12c65.19,0 131.06,-5.93 195.73,-7.83 103.3,-3.03 98.96,-15.17 147.5,37.36 65.87,71.3 50.57,167.41 50.57,259.03 0,87.36 16.23,185.44 -51.92,253.93 -36.36,36.54 -16.91,48.42 -146.11,37.22 -63.28,-5.48 -132.78,-5.66 -197.69,-8.74 -6.8,-25.64 6.89,-106.38 6.89,-140.17l-4.97 -430.8zm-1166.93 260.11c-0.11,-66.52 4.75,-249.91 44.59,-298.7 20.34,-24.93 35.95,-26.76 80.05,-17.1 53.17,11.65 243.23,41.53 277.46,51.65 5.86,26.26 -5.95,98.01 -7.84,130.08 -9.12,155.09 -1.62,294.9 8.26,450.48 -47.63,11.45 -109.4,19.67 -160.55,29.87 -34.9,6.96 -136.61,32.48 -170.33,24.91 -78.7,-29.92 -71.52,-295.26 -71.64,-371.19zm52.2 376.69c-182.01,18.05 -289.02,-16.59 -397.35,-76.04 -14.23,-7.82 -23.63,-12.77 -36.54,-19.61 -68.49,-36.28 -72.81,-42.19 -74.23,-81.85 -2.02,-56.74 -7.24,-113.52 -7.23,-170.74 0.01,-59.66 5.34,-115.5 7.46,-174.82 1.54,-42.95 -0.27,-41.49 37.8,-61.81 123.33,-65.83 229.4,-143.17 466.56,-116.98 -13.87,38.29 -43.95,34.03 -51.8,154.32 -7.61,116.49 -34.11,481.57 55.33,547.53zm1136.03 -793.81c81.32,14.87 172.65,15.19 257.3,28.29 53.12,8.22 131.05,72.87 151.63,101.29 -83,-4.16 -201.41,5.01 -287.21,10 -278.97,16.21 -576.58,23.56 -851.4,3.07 -266.71,-19.89 -498.9,-141.55 -785.98,1.62l-118.83 68.73c-7.08,-4.65 -11.12,11.56 -4.66,-10.11l-16.32 2.89 -9.53 239.79c0.18,40.5 4.17,82.86 4.4,121.8 0.2,36.02 10.67,83.52 5.18,116.67l18.14 -1.11 -4.9 -11.63c27.49,9.97 42.52,25.61 80.59,45.69 121.65,64.18 152.17,80.81 319.96,91.73 163.28,10.63 343.99,-55.28 506.21,-65.09 192.78,-11.65 382.02,-19.26 577.28,-10.44 187.51,8.48 378.05,21.02 566.05,23.94 -22.94,32.75 -66.57,60.61 -96.68,81.19 23.74,5.27 10.41,-8.59 18.69,13.62l-122.61 16.67c-18.2,2.63 -48.37,4.63 -65.57,6.65 -70.09,8.21 -46.44,4.31 -61.78,17.32 102.53,0 55.66,4.73 136.26,-8.27 64.75,-10.45 74.9,-9.91 132.4,-35.8 15.25,-6.86 10.68,-9.46 26,-23.13l65.06 -59.71c10.15,-10.33 20.32,-20.64 24.71,-32.35 -1.38,7.33 3.09,8.21 -18.35,16.74l-32.72 8.41c3.49,-17.94 -5.86,-8.33 8.73,-16.72 -36.93,8.43 -86.89,6.09 -125.46,2.16 35.97,-42.7 65.43,-59.15 80.75,-118.81 9.52,-37.07 10.12,-318.18 1.73,-356.02 -16.38,-73.9 -63.04,-99.46 -79.32,-127.44 120.77,-11.45 130.46,-8.79 165.77,77.22 29.9,72.82 16.03,281.25 16.7,368.99 0.63,81.96 -35.7,100.54 -56.24,154.36 21.93,-12.63 19.1,-5.25 35.08,-20.1l31.04 -35.92c7.97,-12.41 10.17,-16.68 5.43,-29.28 10.84,11.44 11.32,-14.23 9.1,16.83 4.35,-4.29 1.11,1.27 6.66,-9.01 7.52,-13.91 5.87,-37.65 6.2,-52.52 1.73,-79.07 19.44,-411.39 -26.4,-438.94 -36.58,-0.96 -23.15,-4.44 -34.99,-12.2l3.14 -12.06c0.01,-0.05 6.37,1.21 -0.29,-0.27 -11.35,-20.99 -77.82,-90.3 -93.32,-98.01l-18.35 -7.78c-24.21,-12.52 -11.49,-15.69 -46.93,-26.08 -12.11,-3.55 -26.33,-5.75 -36.68,-7.32l-105.47 -14.01c-27.64,-2.8 -58.28,-1.15 -86.72,-1.27 -62.1,-0.28 -16.34,13.93 -73.48,5.73z"/>
   <path class="fil2" d="M1142.29 717.55c0.22,-30.16 -55.35,-66.13 -79.53,-77.86 -43.79,-21.25 -80.98,-24.35 -134.69,-24.35l-260.09 0c-110.9,0.01 -164.89,3.92 -227.1,64.07 -42.72,41.28 -24.09,47.51 35.02,59.53 43.43,8.83 84.01,15.34 127.72,20.86 138.33,17.47 341.53,11.04 481.77,-21.29 25.2,-5.81 43.95,-6.14 56.9,-20.96z"/>
   <path class="fil1" d="M325.21 1867.65c36.62,7.92 71.12,6.29 108.01,16.11 28.57,7.6 74.65,29.6 91.93,32.13l502.81 0.74c18.98,-1.66 67.11,-24.93 92.67,-31.75 122.7,-32.75 113.87,19.39 113.11,-85.05 -19.25,-2.29 -75.2,7.97 -102.78,8.93 -39.36,1.36 -76.72,2.31 -116.19,2.31 -187.44,0.01 -395.46,2.9 -580.7,-2.09 -39.68,-1.07 -73.47,-8.86 -109.37,-10.4l0.51 69.07z"/>
   <path class="fil10" d="M3624.65 1477.5c-31.81,116.65 -208.75,158.42 -276.05,26.6 -64.95,-127.25 57.63,-269.18 188.64,-214.81 72.55,30.12 108.03,112.55 87.41,188.21zm-1610.61 -24.38c-27.87,-203.58 267.36,-243.43 296.79,-40.45 15.87,109.48 -112.07,241.17 -246.48,134.28 -29.06,-23.12 -45.4,-57.99 -50.31,-93.83zm12.3 -165.94l-18.74 12.38c-32.28,67.43 -52.79,94.21 -46.07,180.6 -28.63,0.81 -69.32,-4.89 -99.03,-8.04 -30.7,-3.26 -65.16,-3.13 -81.52,-20.88 -11.81,7.94 -22.46,-16.17 -2.35,13.95 -0.72,14.08 45.56,15.97 68.65,18.98l165.05 33.37c15.89,6.8 68.72,107.06 189.54,78.14 62.01,-14.84 76,-45.96 97.54,-67.52 5.08,-5.08 4.24,-4.29 9.06,-7.77 39.47,-1.85 99.86,-6.15 134.14,2.45 1.52,-0.65 3.93,-2.54 4.9,-1.52l99.07 -3.44c228.98,-0.08 595.82,-6.32 791.37,0.02 21.67,42.09 87.87,101.98 184.44,77.32 59.05,-15.08 84.44,-51.26 105.87,-87.01 10.94,-18.23 17,-18.05 30.59,-31.01 27.93,16.44 32.83,12.74 94.29,8.1 30.54,-2.31 63.43,-5.2 92.4,-11.18 35.49,-7.34 105.03,-52.82 94.05,-77.13 0.26,-3.16 0.18,-10.09 -0.24,-13.28 -0.14,-1.08 -1.25,-1.7 -1.39,-3.8 -0.14,-2.05 -1.22,-2.4 -1.79,-3.61 -6.16,36.54 -45.3,69.51 -84.38,82.06 -29.25,9.39 -133.49,18.83 -169.76,15.39l-6.64 -28.78 -5.77 -15.54c-2.43,-13.98 4.83,-5.66 -1.28,-19 0.1,-17.14 -28.21,-114.48 -61.95,-119.89 -0.99,-0.94 -1.97,-2.29 -2.68,-2.96l-24.82 -16.99c-3.98,-6.36 -4.58,-8.89 -25.8,-17.03 -5.98,-2.29 -24.04,-7.95 -33.65,-10.08 -86.79,-19.26 -146.35,17.8 -186.09,61.12 1.51,14.12 2.51,10.08 -7.37,23.05 -2.66,3.49 -5.41,8.03 -14.43,13.13 -14.61,60.49 -24.48,84.8 -23.22,151.09l-925.59 -3.48c-15.05,-40.69 9.3,-146.3 -82.95,-218.71 -118.51,-93.03 -247.05,-9.81 -253.45,17.5z"/>
   <path class="fil11" d="M3703.93 311.16c51.96,-13 78.36,-12.37 122.06,4.18 31.76,12.02 71.14,30.7 86.97,50.5 -64.51,-4.85 -169.4,-32.2 -209.03,-54.68zm-716.83 -38.2c52.27,2.14 307.08,7.78 331.64,19.53 36.38,35.81 9.32,231.33 2.87,284.54l-472.8 -0.26c0.4,-54.09 6.66,-104.94 2.73,-159.95 -3.58,-50.05 -14.86,-101.17 -17.59,-148.22 56.08,0.59 28.21,0.13 43.44,12.02 21.43,16.74 78.7,15.84 97.98,3.23 1.02,-0.67 2.2,-1.77 3.08,-2.43l5.82 -5.5c0.54,-1.64 1.73,-2.05 2.83,-2.96zm-547.55 10.55c45.87,-2.55 24.12,-12.79 53.46,-18.16l323.46 3.76c18.54,30.58 40.76,272.92 15.85,307.97l-310.31 -1.99c-34.74,-76.23 -203.21,-260.53 -171.87,-309.62 46,1.97 -3.09,3.16 40.04,15.06 12.87,3.55 34.5,3.81 49.37,2.98zm1077.42 7.91c-186.92,-14.59 -187.1,4.94 -194.22,-47.6 77.74,0.45 389.02,13.06 420.35,51.08 -73.6,13.21 -149.45,2.51 -226.13,-3.48zm-1168.61 -36.89c5.26,-19.84 12.7,-30.16 24.19,-44.53 74.66,1.82 387.89,6.76 438.73,17.58l5.82 30.62 -468.74 -3.67zm481.84 3.97l-7.72 -31.45 352.82 12.48c54.45,8.2 40.42,24.91 73.72,31.57 24.14,-16.05 8.5,-14.34 17.91,-29.51l41.33 1.82 7.37 33.38 -485.43 -18.29zm402.74 -57.07c1.51,19.3 -8.81,32.18 -37.49,31.8 -9.57,-11.13 -10.41,-29.44 -11.36,-42.57 33.33,-0.45 30.89,-0.57 48.85,10.77zm-848.62 -3.16c14.53,-23 30.67,-43.83 47.18,-67.37 25.45,-36.27 13.15,-43.57 75.02,-54.13 73.15,-12.49 184.91,-34.8 266.27,-28.84 10.87,15.04 32.64,143.66 34.95,167.82l-423.42 -17.48zm-107.51 -43.63c13.96,-7.22 22.46,-8.02 38.47,-13.01 31.5,-9.8 83.23,-27.07 114.3,-31.03 -21.83,21.55 -31.21,49.24 -51.32,72.42 -53.25,0.8 -82.13,-3.42 -101.45,-28.38zm549.21 -90.82c255.03,20.7 358.56,106.01 391.65,113.3l-52.79 1.02 6.61 34.32 -301.66 -11.81c-14.99,-15.37 -39.97,-110.71 -43.81,-136.83zm-2.37 151.66c-14.52,-17.19 -35.67,-144.8 -34.07,-168.86 241.18,0.55 445.67,112.45 540.57,188.31l-82.93 -4.59c16.84,-7.29 32.74,-2.49 58.36,-2.57 -5.52,-17.52 -3.69,-13.09 -20.03,-22.93 -144.21,-86.87 -262.4,-140.65 -477.69,-152.94l48.27 156.83c57.07,15.19 276.44,3.4 318.98,17.09 -18.48,6.5 -302.32,-8.59 -351.46,-10.34zm-777.08 44.04c23.38,11.28 98.46,8.09 115.74,5.22l-80.44 -2.64c-30.8,3.44 -14.58,-5.08 -26.92,8.67l277.07 -4.39c2.79,35.69 8.97,53.11 26.78,83.48 12.15,20.71 40.65,51.47 41.81,70.05 1.41,26.26 -0.29,0.23 19.36,27.52 9.29,12.88 -4.71,12.16 16.88,18.18 -8.08,-13.17 60.23,101.76 82.21,119.82 78.7,3.41 785.56,4.74 806.4,-2.25 44.09,-27.21 11.53,-261.39 10.42,-293.79 55.8,4.18 322.75,15.53 361.6,32.44 29.95,13.04 61.52,20.81 89.39,31.99l-59.64 52.38c-17.45,15.06 -6.71,13.5 -31.71,7.12 0.92,1.04 2.45,2.21 3.22,2.9l22.56 18.57c-3.99,-13.07 -5.71,-8.2 36.07,-40.88 15.04,-11.76 29.49,-26.83 45.27,-35.88 37.11,5.37 88.88,23.18 131.37,16.9 -0.83,-18.2 -2.86,-15.21 -19.84,-22.16 3.5,-5 6.23,-10.22 9.28,-14.12l-13.89 -7.38 -5.72 8.36c-31.72,-11.56 -55.44,-27.48 -95.79,-40.82 -93.48,-30.91 -194.61,-52.13 -299.11,-58.16 -66,-3.81 -66.29,4.14 -67.08,-13.13l-9.78 0.39c-14.01,9.79 2.19,2.03 -16.38,6.38 -22.36,5.24 -60.93,1.93 -77.62,-8.35 -46.09,-28.38 -38.45,-30.03 -104.14,-67.17 -95.54,-54.01 -193.97,-95.3 -339.5,-114.69 -196.28,-26.14 -412.45,19.82 -590.21,73.46 -33.87,10.22 -52.24,11.45 -58.81,33.6 18.97,-5.72 3.83,-1.01 15.21,-5.43 102.77,-39.92 91.41,-28.15 183.78,-56.37 -7.82,7.98 -141.15,39.6 -169.46,52.03l-17.88 11.3c28.49,50.91 81.58,36.45 109.15,44.7 -40.26,7.93 -69.68,-4.56 -91.81,-24.69 -12.41,-11.28 -10.73,-12.23 -29.4,-18.78 6.34,18.15 24.28,34.99 40.13,43.15 17.22,8.86 43.18,10.57 70.98,12.81l-25.83 44.92 -283.72 4.74z"/>
   <path class="fil1" d="M1201.16 2095.75c9.6,-19.35 22.91,-99.16 22.12,-122.27 -40.13,4.07 -81.62,5.58 -121.87,9.14 -36.28,3.2 -43.1,33.24 -79.32,46.59 -37.7,13.88 -192.14,7.14 -245.74,7.14 -54.84,0 -204.08,7.67 -244,-8.5 -49.85,-20.19 -32,-42.54 -80.81,-45.65 -39.97,-2.55 -77.52,-6.22 -117.43,-8.04 1.28,30.26 10.9,96.51 21.77,123.16l845.28 -1.57z"/>
   <path class="fil1" d="M1799.69 2426.05c27.06,28.32 89.38,64.83 125.77,89.2 22.04,14.76 38.71,33.36 69.8,41.39 72.41,18.7 282.53,16.09 361.13,14.67 99.2,-1.79 190.66,-75.8 672.38,-67.1 71.87,1.3 421.84,16.13 461.83,33.98 1.57,26.16 -68.58,34.53 -115.15,40.71 13.89,23.14 17.84,16.87 18.64,50.77 30.64,4.34 146.77,-12.45 185.97,-16.47 107,-10.97 97.39,-4.08 168.14,-31.76 30.11,-20.58 73.74,-48.44 96.68,-81.19 -188,-2.92 -378.54,-15.46 -566.05,-23.94 -195.26,-8.82 -384.5,-1.21 -577.28,10.44 -162.22,9.81 -342.93,75.72 -506.21,65.09 -167.79,-10.92 -198.31,-27.55 -319.96,-91.73 -38.07,-20.08 -53.1,-35.72 -80.59,-45.69l4.9 11.63z"/>
   <path class="fil1" d="M1797.82 1946.01c-6.46,21.67 -2.42,5.46 4.66,10.11l118.83 -68.73c287.08,-143.17 519.27,-21.51 785.98,-1.62 274.82,20.49 572.43,13.14 851.4,-3.07 85.8,-4.99 204.21,-14.16 287.21,-10 -20.58,-28.42 -98.51,-93.07 -151.63,-101.29 -84.65,-13.1 -175.98,-13.42 -257.3,-28.29l-42.37 -3.28c0.38,34.92 -3.66,27.27 -18.47,53.74 38.19,4.24 109.1,12.42 115.94,37.48 -16.33,14.29 -71.53,13.93 -104.93,16.98 -252.54,23.08 -588.56,34.5 -826.45,-7.15 -47.91,-8.39 -163.82,-39.39 -204.33,-39.86 -72.28,-0.85 -303.07,-4.12 -366.09,15.68 -26.81,8.43 -168.56,110.49 -192.45,129.3z"/>
   <path class="fil1" d="M2026.34 1287.18c6.4,-27.31 134.94,-110.53 253.45,-17.5 92.25,72.41 67.9,178.02 82.95,218.71l925.59 3.48c-1.26,-66.29 8.61,-90.6 23.22,-151.09l-0.47 -5.76c-9.68,21.76 -60.36,94.83 -79.92,117.64 -44.05,6.3 -770.03,6.59 -821.49,0.55 -46.2,-44.79 -12.7,-249.28 -11.43,-295.13l-316.95 20.89c-37.26,2.76 -112.99,29.57 -140.68,42.51 10.67,15.22 64.18,59.5 85.73,65.7z"/>
   <path class="fil1" d="M2436.85 465.61c18.19,60.52 24.61,90.83 23.97,158.05l913.25 -3.06c-4.15,-87.15 12.28,-157.39 75.42,-217.32 90.01,-85.45 238.32,-25.22 246.03,10.04 25,6.38 14.26,7.94 31.71,-7.12l59.64 -52.38c-27.87,-11.18 -59.44,-18.95 -89.39,-31.99 -38.85,-16.91 -305.8,-28.26 -361.6,-32.44 1.11,32.4 33.67,266.58 -10.42,293.79 -20.84,6.99 -727.7,5.66 -806.4,2.25 -21.98,-18.06 -90.29,-132.99 -82.21,-119.82z"/>
   <path class="fil1" d="M2683.5 913.23c-19.8,41.73 26.77,2.07 -82.28,48.81 -36.19,15.51 -70.38,32.48 -102.66,47.87 -67.29,32.06 -142.9,99.23 -206.61,89.45 -26.52,-4.07 -14.63,-13.3 -57.15,-12.88 -25.63,0.25 -50.07,2.19 -75.23,5.28 -50.64,6.21 -90.86,14.21 -135.88,25.3 -48.03,11.82 -203.64,68.7 -207.06,90.71 22.92,-1.92 33.35,-18.34 85.78,-35.89 252.33,-84.43 369.49,-55.35 470.37,-69.93 18.5,-2.67 58.27,-35.53 75.41,-45.27 52.56,-29.88 95.25,-54.85 163.36,-83.42 126.81,-53.2 291.13,-80.24 462.05,-63.88 84.27,8.07 155.18,22.4 232.39,38.06 47.63,9.66 180.21,42.32 201.81,62.71 5.68,20.91 -12.27,35.9 -28.44,47.36 -21.92,15.54 -39.33,18.12 -79.47,20.08l17.66 44.14c26,5.73 230.51,7.99 272.07,6.18 29.63,-1.29 79.43,-12.85 110.87,-18.45 30.77,-5.48 89.31,-6.46 95.23,-30.22 -47.41,-16.55 -124.71,-19.41 -141.24,-23.3 -43.12,-10.16 -88.48,-25.65 -129.54,-37.81 -45.58,-13.5 -83.68,-26.26 -126.84,-39.51 -89.75,-27.58 -93.21,-22.34 -102.97,-52.33 -0.29,-0.89 -0.42,-2.45 -1.12,-3.56 -124.66,-18.77 -204.79,-38.3 -347.38,-40.59 -66.19,-1.06 -130.86,0.4 -196.06,7.6 -59.55,6.57 -110.95,16.46 -167.07,23.49z"/>
   <path class="fil12" d="M487.1 1977.36c36.69,37.11 45.93,46.99 120.18,46.94l346.85 -0.02c64.33,-0.22 88.08,-15.86 116.92,-46.92 -8.48,-16.45 -22.46,-31.03 -33.93,-48.51l-516.71 0.48 -33.31 48.03z"/>
   <path class="fil12" d="M2046.57 259.52l283.72 -4.74 25.83 -44.92c-27.8,-2.24 -53.76,-3.95 -70.98,-12.81 -15.85,-8.16 -33.79,-25 -40.13,-43.15 18.67,6.55 16.99,7.5 29.4,18.78 22.13,20.13 51.55,32.62 91.81,24.69 -27.57,-8.25 -80.66,6.21 -109.15,-44.7l17.88 -11.3c28.31,-12.43 161.64,-44.05 169.46,-52.03 -92.37,28.22 -81.01,16.45 -183.78,56.37 -11.38,4.42 3.76,-0.29 -15.21,5.43 6.57,-22.15 24.94,-23.38 58.81,-33.6 177.76,-53.64 393.93,-99.6 590.21,-73.46 145.53,19.39 243.96,60.68 339.5,114.69 65.69,37.14 58.05,38.79 104.14,67.17 16.69,10.28 55.26,13.59 77.62,8.35 18.57,-4.35 2.37,3.41 16.38,-6.38 -54.61,2.8 -81.74,-21.84 -108.06,-37.06 -15.81,-9.14 -24.59,-16.45 -40.6,-24.96 -15.46,-8.23 -30.87,-16.66 -46.72,-24.88 -41.39,-21.47 -96.5,-47.82 -143.95,-64.77 -36.96,-13.2 -35.67,-2.58 -35.93,-31.19 -226.33,-38.07 -483.89,-46.83 -700.73,10.28 -18.39,32.13 21.7,16.11 -99,54.25l-246.91 75.62c-27.75,7.96 -81.21,4.79 -146.46,25.16 9.06,32.76 107.86,25.63 182.85,49.16z"/>
   <path class="fil1" d="M369.43 1573.14c-6.22,18.74 -19.19,30.16 -21.85,53.24 68.18,-1.45 135.09,-7.65 203.36,-8.67l442.15 -0.31c71.52,0.27 142.81,6.89 215.87,9.04 -2.52,-22.64 -7.94,-23.85 -12.78,-41.25 -0.67,-0.48 -1.51,-2.29 -1.73,-1.71 -1.25,3.26 -1.83,-4.13 -10.09,-8.33 -14.51,-7.38 -56.45,-6.59 -74.19,-7.87 -173.33,-12.46 -362.82,-13.33 -536.25,-6.98 -67.36,2.46 -142.83,11.85 -204.49,12.84z"/>
   <path class="fil0" d="M3859.02 2484.87l3.93 0.46c20.54,-53.82 56.87,-72.4 56.24,-154.36 -0.67,-87.74 13.2,-296.17 -16.7,-368.99 -35.31,-86.01 -45,-88.67 -165.77,-77.22 16.28,27.98 62.94,53.54 79.32,127.44 8.39,37.84 7.79,318.95 -1.73,356.02 -15.32,59.66 -44.78,76.11 -80.75,118.81 38.57,3.93 88.53,6.27 125.46,-2.16z"/>
   <path class="fil12" d="M363.62 2110.53c12.96,22.55 28.16,40 63.58,47.29 30.85,6.35 522.5,2.53 591.9,2.53 39.05,0 165.06,11.76 174.65,-50.95l-830.13 1.13z"/>
   <path class="fil0" d="M3606.39 1290.54c33.74,5.41 62.05,102.75 61.95,119.89 33.96,10.33 138.6,0.27 172.33,-9.17 35.52,-9.93 47.77,-40.75 93.45,-60.94 -2.45,-19.01 -10.19,-17.4 -10.8,-41.55 -0.34,-13.44 1.56,-24.18 -0.78,-37.85 -114.93,-31.64 -82.1,-15.72 -173.48,-80.39 -15.1,8.65 -18.43,20.7 -27.29,34.22 -15.3,23.34 -36.41,45.34 -71.03,54.24 -54.46,14.02 -49.2,0.53 -44.35,21.55z"/>
   <path class="fil0" d="M1837.76 392.44l-4.2 58.84c-7.1,25.66 -9.48,16.68 58.22,67.19 37.35,27.87 134.36,29.76 190.48,27.74 10.59,-15.13 16.22,-52.26 24.92,-71.24 13.66,-29.8 29.73,-38.56 44.34,-62.21 -39.06,-16.99 -56.94,-6.42 -89.24,-35.12 -20.12,-17.9 -29.74,-49.16 -51.45,-66.49 -78.62,51.06 -37.51,47.41 -173.07,81.29z"/>
   <path class="fil13" d="M1271.98 970.86c-2.84,16.83 -3.53,129.11 0,144.09 8.48,36.09 76.85,29.03 128.92,26.56 56.34,-2.67 41.71,-57.82 41.72,-106.97 0.01,-48.13 0.61,-95.4 -1.72,-143.48 3.04,7.99 -4.38,32.67 -8.54,46.23 -15.6,50.85 -79.33,31.1 -160.38,33.57z"/>
   <path class="fil13" d="M115.79 1111.28c3.55,22.11 17.76,29.65 44.73,30.32 40.09,0.99 119.19,12.73 125.71,-29.96 2.93,-19.15 2.11,-121.72 -1.35,-140.36 -140.1,-9.78 -143.32,30.9 -167.42,-72.68l-1.67 212.68z"/>
   <path class="fil14" d="M258.63 386.87c7.53,-46.31 51.88,-153.92 77.43,-196.15 15.68,-25.91 33.84,-22.18 71.87,-22.95 123,-2.48 245.69,-6.96 368.42,-8.06 120.58,-1.09 249.68,4.57 369.5,8.02 86.31,2.48 74.28,14.92 104.18,80.75 13.93,30.67 45.52,102.7 48.07,137 -79.52,1.73 -172.94,-6.29 -253.83,-8.76 -264.62,-8.06 -520.95,-5.22 -785.64,10.15zm-13.16 11.28c82.98,1.9 181.2,-6.72 266.46,-9.4 246.19,-7.76 425.78,-3.15 667.33,5.15 39.82,1.37 96.94,6.14 132.41,4.24 6.48,-34.25 -53.38,-164.39 -73.48,-203 -14.42,-27.7 -18.76,-35.58 -58.52,-37.67 -250.2,-13.16 -537.95,-8.9 -789.23,-0.69 -36.46,1.2 -50.06,0.92 -66.85,30.47 -24.45,43.04 -79.05,168.03 -78.12,210.9z"/>
   <path class="fil13" d="M1280.51 2425.17c-0.72,29.84 -6.6,124.42 7.16,141.52 12.98,16.15 123.8,17.05 144.7,8.65 31.35,-12.59 20,-101.05 19.98,-130.62 -0.05,-43.92 3.57,-102.73 -1.53,-144.79 -6.64,29.46 -16.08,94.4 -34.48,111.11 -27.01,24.53 -97.42,8.77 -135.83,14.13z"/>
   <path class="fil2" d="M106.95 2521.93c0,34.92 -0.69,55.46 40.51,56.53 21.67,0.56 81.19,2.13 99.77,-0.7 33.32,-5.07 30.54,-32.12 30.35,-63.94 -0.17,-29.49 0.92,-59.15 -0.82,-88.57 -116.63,-12.99 -136.23,33.84 -159.3,-82.25l-8 -22.54c-0.34,-1.98 -1.28,-2.36 -2.61,-3.38l0.1 204.85z"/>
   <polygon class="fil15" points="1090.81,1014.16 1087.7,970.57 468.2,971.04 469.09,1015.79 "/>
   <path class="fil1" d="M3333.35 1304.6c39.74,-43.32 99.3,-80.38 186.09,-61.12 9.61,2.13 27.67,7.79 33.65,10.08 21.22,8.14 21.82,10.67 25.8,17.03 133.74,-2.36 154.57,-101.72 154.48,-101.94 -40.9,-39.12 -48.18,-30.8 -133.13,-32.28 -53.78,-0.94 -127.12,-5.57 -178.58,-1.73 -6.85,14.47 -5.78,37.29 -13.25,53.65l-75.06 116.31z"/>
   <path class="fil1" d="M1900.5 1358.42c17.72,23.45 19.07,42.91 6.13,68.34 -29.93,3.52 -67.25,8.86 -100.92,6.97 -55.38,-67.5 62.96,-77.79 94.79,-75.31zm-119.52 92.82c16.36,17.75 50.82,17.62 81.52,20.88 29.71,3.15 70.4,8.85 99.03,8.04 -6.72,-86.39 13.79,-113.17 46.07,-180.6 -2.14,-11.51 -72.2,-65.96 -86.07,-74.34 -38.97,6.67 -85.34,22 -132.77,18.37 4.97,-26.39 15.65,-15.14 15.23,-33.49l-27.97 15.44c71.66,154.07 -2.9,110.78 -5.66,162.29 -0.76,14.38 4.94,49.73 10.62,63.41z"/>
   <path class="fil1" d="M3826.89 490.13c31.06,-2.22 87.1,15.23 92.02,18 19.11,10.76 17.01,49.75 -6.48,56.55 -23.22,6.71 -84.78,-2.49 -94.76,-11.59 -18.6,-16.95 -3.34,-49.37 9.22,-62.96zm-105.59 -55.34c40.31,71.24 42.24,96.59 44.49,177.62 41.7,-1.78 103.23,-7.09 142.59,-13.87 48.26,-8.3 42.14,-39.26 44.01,-76.37 1.43,-28.12 -4.64,-18.67 -22.23,-38.14 -34.23,-37.91 5.17,-93.51 17.27,-128.17 -14.04,-9.38 -14.54,-5.18 -23.98,-17.21 -3.05,3.9 -5.78,9.12 -9.28,14.12 16.98,6.95 19.01,3.96 19.84,22.16 -42.49,6.28 -94.26,-11.53 -131.37,-16.9 -15.78,9.05 -30.23,24.12 -45.27,35.88 -41.78,32.68 -40.06,27.81 -36.07,40.88z"/>
   <path class="fil2" d="M2521.01 1044.82l45.94 3.4 -2.34 32.26 309.47 -11.01 46.04 -136.26c-82.13,-7.54 -221.43,36.72 -296.57,64.93l-65.23 28.39c-17.27,8.67 -26.04,17.07 -37.31,18.29z"/>
   <path class="fil0" d="M2054.95 270.77c-7.33,8.38 -22.47,19.92 -32.69,32.26 28.62,51.41 38.12,76.63 102.8,92.48 34.88,8.55 33.03,11.85 56.93,0.04 97.54,-48.21 190.54,-15.94 218.62,24.36 -1.16,-18.58 -29.66,-49.34 -41.81,-70.05 -17.81,-30.37 -23.99,-47.79 -26.78,-83.48l-277.07 4.39z"/>
   <path class="fil2" d="M2869.83 200.65l301.66 11.81 -6.61 -34.32 52.79 -1.02c-33.09,-7.29 -136.62,-92.6 -391.65,-113.3 3.84,26.12 28.82,121.46 43.81,136.83z"/>
   <path class="fil12" d="M1449.88 2005.15l-53.44 -105.59c-46.6,-74.6 -15.47,-2.63 -58.03,-107.39 -26.4,-64.96 -52.88,-106.26 -86.81,-162.65 -10.98,-18.25 -27.66,-33.33 -34.93,-46.03 -17.73,7.77 0.89,0.34 12.92,59.69 4.62,22.78 7.63,45.3 10.91,69.66 3.52,26.16 6.91,49.9 5.73,77.59 -0.81,19.15 -3.6,61.74 1.16,78.24 50.32,2.7 102.58,10.7 141.3,26.02 2.15,56.12 -5.31,53.01 19.34,100.15 12.47,23.84 26.39,62.77 44.27,77.11l-2.42 -66.8z"/>
   <path class="fil2" d="M2993.11 1065.9l316.96 -10.58c-3.2,-15.5 -23.5,-44.1 -33.54,-59.69 -18.4,-28.54 -10.52,-32.55 -59.89,-40.65 -57.5,-9.42 -151.86,-27.03 -213.14,-23.09l-10.39 134.01z"/>
   <path class="fil12" d="M108.7 1997.7l-1.76 70.74c13.03,-9.62 15.2,-21.04 23.86,-37.76 43.22,-83.5 34.82,-55.57 38.34,-135.07 38.26,-18.73 93.74,-21.53 142.73,-27.87 5.65,-100.77 -6.14,-107.47 15.59,-220.62 4.1,-21.38 19.05,-48.9 18.24,-63.72 -40.05,28.51 -98.55,145.84 -123.72,203.28 -41.86,95.48 0.95,17.8 -55.92,105.78 -16.68,25.8 -42.11,95.46 -57.36,105.24z"/>
   <path class="fil13" d="M459.42 884.32c24.1,14.47 599.57,16.2 639.3,1.04 2.75,-13.92 -6.41,-18.5 -14.6,-31.53 -246.47,5.37 -365.29,4.83 -611.09,-1.23 -5.77,9.63 -16.13,20.49 -13.61,31.72z"/>
   <path class="fil2" d="M2442.94 186.61l305.14 10.97 -6.77 -132.54c-40.92,-6.45 -165.8,13.31 -208.66,22.23 -53.14,11.05 -36.49,9.41 -57.38,40.42 -9.89,14.67 -33.72,45.79 -32.33,58.92z"/>
   <path class="fil16" d="M1142.29 717.55c-12.95,14.82 -31.7,15.15 -56.9,20.96 -140.24,32.33 -343.44,38.76 -481.77,21.29 -43.71,-5.52 -84.29,-12.03 -127.72,-20.86 -59.11,-12.02 -77.74,-18.25 -35.02,-59.53 62.21,-60.15 116.2,-64.06 227.1,-64.07l260.09 0c53.71,0 90.9,3.1 134.69,24.35 24.18,11.73 79.75,47.7 79.53,77.86zm-570.37 -112.04c-94.94,8.21 -234.35,112.18 -131.05,138.22 188.43,47.49 449.85,49.38 640.84,8.48 29.67,-6.36 73.04,-10.67 74.15,-39.13 1.34,-34.21 -79.74,-86.86 -125.97,-99.62 -60.46,-16.69 -381.17,-14.59 -457.97,-7.95z"/>
   <path class="fil1" d="M1216.02 2097.03c50.61,0.97 91.83,7.24 125.86,-24.25 32.2,-29.81 34.42,-54.96 35.22,-109.9l-140.1 10.32 -20.98 123.83z"/>
   <path class="fil1" d="M180.65 1963.48c1.31,49.22 4.28,82.06 34.48,109.31 32.83,29.61 72.65,26.24 125.5,24.18l-19 -123.93 -140.98 -9.56z"/>
   <path class="fil17" d="M2163.61 1490.94c20.41,20.34 32.94,30.39 7.94,45.92l-21.48 -0.48c-21.12,-17.44 -4.73,-28.7 13.54,-45.44zm51.52 -41.31l9.52 -4.39c30.17,-13.76 20.74,-8.38 32.01,-7.07 5.63,19.67 4.89,38.8 -21.35,47.25l-20.18 -35.79zm-132.87 34.83c-15.05,-10.94 -24.05,-28.71 -11.93,-47.79l37.62 11.37c-4.64,16.53 -9.87,29.57 -25.69,36.42zm112.4 -96.46c1.77,-38 -9.07,-38.04 9.41,-47.29 15.26,-6.45 30.63,16.63 32.13,31.13l-41.54 16.16zm-67.12 -47.17l3.49 45.08 -40.91 -10.26c-1.94,-18.88 9.34,-36.7 37.42,-34.82zm-8.33 -17.76c30.66,-9.85 52.53,-12.61 78.95,-2.14 2.47,7.4 -14.12,7.23 -16.9,30.28 -4.03,33.33 1.48,45.75 28.91,43.49 32.98,-2.71 36.63,-19.83 40.36,-25.36 0.57,-0.84 1.66,-2.27 2.13,-2.95 0.48,-0.69 1.2,-2.1 2.24,-2.94 17.09,29.85 18.91,37.91 21.47,71.93 -9.34,-5.45 -10.06,-8.5 -22.67,-10.46 -5.39,-0.84 -76.16,1.63 -35.56,56.77 11.4,15.47 12.95,22.74 40.17,9.4 -11.8,23.5 -32.63,42.18 -67.06,53.02 6.52,-17.06 14.09,-26.73 -10.34,-52.35 -13.14,-13.78 -0.31,-6.52 -21.26,-12.85l-7.18 5c-4.27,3.68 -2.66,1.48 -8.21,7.72 -29.44,33.07 -19.42,34.64 -10.97,52.83 -31.82,-9.85 -57.23,-30.26 -66.9,-53 30.53,12.19 28.18,6.69 39.84,-10.17 9.36,-13.52 15.08,-25.57 11.86,-41.28 -31.55,-14.37 -36.76,-21.47 -60.79,-10.62l-9.03 5.52c1.91,-33.08 3.66,-43.32 22.08,-71.42l8.77 15.07c6.41,8.82 16.1,15.4 35.74,16.68 10.09,0.65 35.5,10.72 28.89,-44.04 -1.6,-13.24 1.5,-7.61 -7.01,-16.41l-17.53 -11.72zm5.45 -16.23c-37.35,11.71 -58.31,31 -73.23,57.62 -14.52,25.92 -18.86,63.23 -13.51,91.98 15.72,84.41 109.15,139.47 191.85,85.15 22.6,-14.85 28.9,-18.18 40.86,-41.41 58.07,-112.82 -35.31,-228.06 -145.97,-193.34z"/>
   <path class="fil12" d="M1125.38 577.21c48.27,9.9 58.59,10.81 95.52,-7.99 24.47,-12.47 47.68,-21.38 73.46,-36.19 34.42,-19.78 100.72,-73.78 58.52,-131.34 -14.79,9.17 -37.21,32.18 -57.71,46.22 -32.28,22.13 -156.48,84.1 -169.79,129.3z"/>
   <path class="fil12" d="M204.16 403.54c-55.42,88.83 88.27,143.11 135.08,167.09 34.4,17.63 38.9,15.85 92.78,6.8 -16.65,-49.18 -131.87,-104.5 -169.89,-129.74 -18.24,-12.11 -44.04,-39.11 -57.97,-44.15z"/>
   <path class="fil18" d="M3478.75 1490.6c13.73,10.39 29.45,27.04 20.29,43.06 -23.3,7.22 -32.46,1.53 -44.49,-8.49l24.2 -34.57zm-63.85 -17.8c-13.56,19.37 0.28,7.47 -19.37,12.74 -10.72,-10.41 -18.11,-32.28 -8.87,-48.68 18.17,-1.07 23.87,2.97 37.35,12.2 -1.62,9.12 -3.72,16.04 -9.11,23.74zm119.8 -23.74c10.41,-7.46 23.86,-13.51 38.66,-12.2 9.18,19.86 1.78,38.11 -14.79,48.13 -11.85,-6.94 -22.4,-23.7 -23.87,-35.93zm-21.18 -65.95c-2.55,-16.42 -7.27,-28.84 3.38,-43.75 23.46,2.25 36.45,13.39 37.05,32.48 -12.56,9.87 -21.83,12.44 -40.43,11.27zm-106.67 -11.27c1.18,-20.53 12.76,-31.17 40.95,-32.31l-2.33 44.87c-21.58,-0.54 -23.14,-0.54 -38.62,-12.56zm37.51 22.98l9.09 -1.33c10.4,-13.02 8.36,-39.95 4.92,-58.22l-22.52 -12.2c43.88,-12.89 50.3,-9.06 88.74,-1.31 -1.02,0.85 -2.8,1.71 -3.6,2.21 -0.8,0.5 -2.62,1.58 -3.57,2.2 -0.92,0.59 -2.48,1.46 -3.45,2.13 -13.59,9.37 -12.75,9.42 -13.63,22.93 -3.01,46.46 7.07,45.66 30.12,42.56 44.48,-5.98 32.92,-22.98 40.02,-32.62 17.55,23.45 26.46,52.35 23.59,80.8 -11.48,-11.21 -4.26,-10.85 -24.76,-20.49l-45.66 18.74c-3.41,27.26 9.39,46.21 39.41,58.28 0.94,0.38 3.54,2.52 4.24,1.68 0.7,-0.86 3.07,0.94 4.3,1.71 -18.43,21.11 -28.22,32.52 -63.78,43.2 8.79,-18.24 14.75,-22.74 0.37,-41.32 -7.57,-9.78 -12.97,-18.39 -27,-24.65 -29.99,9.59 -43,39.8 -29.09,65.35 -33.86,-9.06 -57.54,-29.68 -69.03,-54.24 18.49,9.43 8.83,7.11 32.01,3.52 9.96,-20.34 55.12,-61.64 -29.14,-70.09 -13.56,8.94 -7.81,5.95 -17.93,18.04 -4.93,-36.2 7.71,-49.73 17.72,-79.17 1.1,0.95 1.92,2.4 2.5,3.2 0.56,0.79 1.69,2.23 2.36,3.18 0.65,0.93 1.44,2.14 2.14,3.14 4.18,6 9.15,18.92 38.03,22.5 14.62,1.81 3.73,0.48 13.6,0.27zm1.82 -87c-37.86,10.33 -61.09,30.98 -76.45,57.98 -48.4,85.06 14.76,225.49 142.63,191.05 158.66,-42.74 105.05,-295.75 -66.18,-249.03z"/>
   <path class="fil19" d="M3468.77 1416.54c17.07,-4.37 25.42,-2.22 28.8,8.97 4.6,15.22 -5.74,19.41 -16.38,23.6 -24.76,-7.79 -25.87,-17.66 -12.42,-32.57zm-32.92 -93.47l22.52 12.2c3.44,18.27 5.48,45.2 -4.92,58.22l-9.09 1.33c-9.87,0.21 1.02,1.54 -13.6,-0.27 -28.88,-3.58 -33.85,-16.5 -38.03,-22.5 -0.7,-1 -1.49,-2.21 -2.14,-3.14 -0.67,-0.95 -1.8,-2.39 -2.36,-3.18 -0.58,-0.8 -1.4,-2.25 -2.5,-3.2 -10.01,29.44 -22.65,42.97 -17.72,79.17 10.12,-12.09 4.37,-9.1 17.93,-18.04 84.26,8.45 39.1,49.75 29.14,70.09 -23.18,3.59 -13.52,5.91 -32.01,-3.52 11.49,24.56 35.17,45.18 69.03,54.24 -13.91,-25.55 -0.9,-55.76 29.09,-65.35 14.03,6.26 19.43,14.87 27,24.65 14.38,18.58 8.42,23.08 -0.37,41.32 35.56,-10.68 45.35,-22.09 63.78,-43.2 -1.23,-0.77 -3.6,-2.57 -4.3,-1.71 -0.7,0.84 -3.3,-1.3 -4.24,-1.68 -30.02,-12.07 -42.82,-31.02 -39.41,-58.28l45.66 -18.74c20.5,9.64 13.28,9.28 24.76,20.49 2.87,-28.45 -6.04,-57.35 -23.59,-80.8 -7.1,9.64 4.46,26.64 -40.02,32.62 -23.05,3.1 -33.13,3.9 -30.12,-42.56 0.88,-13.51 0.04,-13.56 13.63,-22.93 0.97,-0.67 2.53,-1.54 3.45,-2.13 0.95,-0.62 2.77,-1.7 3.57,-2.2 0.8,-0.5 2.58,-1.36 3.6,-2.21 -38.44,-7.75 -44.86,-11.58 -88.74,1.31z"/>
   <path class="fil19" d="M3577.5 579.83c-35.62,-1.37 -33.26,-14.64 -20.77,-34.19l22.12 3.55c10.08,12.53 9.94,16.88 -1.35,30.64zm9.03 -94.25c1.7,-25.88 11.46,-19.07 23.31,-33.25 -39.12,-6.34 -48.83,-8.82 -87.43,2.84 17.56,10.74 24.13,7.72 25.72,30.38 0.95,13.39 1.06,29.94 -7.42,40.99 -29.06,1.98 -58.7,-9.12 -62.81,-30.69 -0.33,-1.76 -1.13,-2.27 -1.99,-3.3 -9,28.53 -20.43,39.08 -20.81,75.67l26.09 -13.7c66.24,17 47.57,31.51 18.68,73.78 -22.34,-0.84 -15.83,0.74 -30.03,-8.56 16.53,27.9 34.84,48.2 73.3,57.35 -17.88,-22.84 -5.16,-56.63 27.34,-66.31 30.25,20.48 39.36,38.97 21.57,66.47 34.91,-7.64 53.27,-26.72 68.65,-49.11l-21.84 -1.86c-9,-3.2 -61.53,-51.01 3.2,-67.4 13.02,-3.3 3.58,-5.67 28.81,2.6l9.97 4.15c-2.82,-34.7 -13.41,-45.35 -21.45,-72.61l-3.93 6.37c-4.13,7.09 -9.31,31.67 -61.17,27.48 -7.72,-10.75 -8.63,-27.89 -7.76,-41.29z"/>
   <path class="fil18" d="M2272.75 624.13c81.54,56.11 -80.3,62.68 0,0zm-68.38 -14.31c-4.87,5.43 -5.91,5.28 -9,7.67 -16.95,-11.76 -24.73,-30.31 -14.12,-46.76 15.44,-4.69 20.68,0.85 36.91,8.65l-13.79 30.44zm122.12 -26.38c8.94,-8.55 19.03,-14.42 38.86,-15.9 6.53,18.65 6.78,38.16 -17.83,50.03l-21.03 -34.13zm-18.02 -110.3c22.13,-5.35 36.52,14.11 37,34.44l-38.69 8.23c-4.01,-14.46 -4.77,-32.28 1.69,-42.67zm-105.37 33.09c-1.16,-11.12 0.6,-18.08 8.3,-25.85 12.14,-12.24 8.69,-9.01 25.63,-8.7 12.66,22.03 14.52,60.21 -33.93,34.55zm46.45 20.26c3.37,-11.72 5.12,-30.61 3.75,-44.88 -1.31,-13.76 2.62,-10.52 -17.22,-23.96l-6.69 -4.34c44.29,-7.56 44.56,-7.73 87.67,0.18 -9.94,9.97 0.99,-0.91 -9.99,6.96 -7.59,5.43 -1.44,-1.37 -8.9,6.47 -12.18,12.79 -6,46.54 -2.17,59.82 56.12,5.64 60.32,-21.24 70.67,-30.45 12.66,29.1 19.38,40.38 17.79,74.63 -10.41,-8.06 -5.09,-8.88 -22.41,-15.92 -25.13,5.99 -28.59,6.97 -46.16,20.31 -2.11,3.43 3.28,43.22 30.22,51.11 9.73,2.86 10.39,1.25 11.09,1.32 28.62,2.72 -8.96,-5.27 9,0.4 -13.33,19.54 -33.61,45 -69.02,48.9 22.59,-23.29 5.24,-51.71 -24.43,-66.51 -28.31,11.66 -43.43,43.39 -23.96,66.41 -32.11,-3.83 -51.4,-24.87 -66.99,-44.73 1.47,-0.62 3.76,-0.81 4.92,-1.1l21.38 -6.81c0.1,-0.06 65.71,-61.12 -31.07,-68.27 -8.24,9.51 -14,16.54 -14.04,31.05 -4.76,-40.53 3.37,-63.31 22.07,-96.12 7.73,16.55 -5.29,16.66 15.32,27.94 12.92,7.07 32.11,8.97 49.17,7.59zm-97.42 69.14c8.29,52.27 62.99,116.18 159.26,91.83 75.5,-19.09 92.99,-103.28 83.21,-151.8 -31.32,-155.41 -272.58,-129.83 -242.47,59.97z"/>
   <path class="fil20" d="M2278.71 546.24c42.9,30.63 -32.78,48.38 -23.95,13.24 2.81,-11.19 9.74,-11.79 23.95,-13.24zm-49.32 -92.93l6.69 4.34c19.84,13.44 15.91,10.2 17.22,23.96 1.37,14.27 -0.38,33.16 -3.75,44.88 -17.06,1.38 -36.25,-0.52 -49.17,-7.59 -20.61,-11.28 -7.59,-11.39 -15.32,-27.94 -18.7,32.81 -26.83,55.59 -22.07,96.12 0.04,-14.51 5.8,-21.54 14.04,-31.05 96.78,7.15 31.17,68.21 31.07,68.27l-21.38 6.81c-1.16,0.29 -3.45,0.48 -4.92,1.1 15.59,19.86 34.88,40.9 66.99,44.73 -19.47,-23.02 -4.35,-54.75 23.96,-66.41 29.67,14.8 47.02,43.22 24.43,66.51 35.41,-3.9 55.69,-29.36 69.02,-48.9 -17.96,-5.67 19.62,2.32 -9,-0.4 -0.7,-0.07 -1.36,1.54 -11.09,-1.32 -26.94,-7.89 -32.33,-47.68 -30.22,-51.11 17.57,-13.34 21.03,-14.32 46.16,-20.31 17.32,7.04 12,7.86 22.41,15.92 1.59,-34.25 -5.13,-45.53 -17.79,-74.63 -10.35,9.21 -14.55,36.09 -70.67,30.45 -3.83,-13.28 -10.01,-47.03 2.17,-59.82 7.46,-7.84 1.31,-1.04 8.9,-6.47 10.98,-7.87 0.05,3.01 9.99,-6.96 -43.11,-7.91 -43.38,-7.74 -87.67,-0.18z"/>
   <path class="fil0" d="M1995.18 1803.87c128.35,-13.43 97.7,-11.85 235.9,-12.13 83.16,-0.17 164,-1.55 245.42,-1.93 -12.55,-21.31 -21.41,-16.96 -15.81,-50.87 -82.72,-1.99 -188.1,2.95 -271.5,7.2 -143.05,7.28 -141.12,-15.2 -194.01,57.73z"/>
   <path class="fil19" d="M2159.65 1412.87c30.24,8.24 30.06,28.04 0,35.77 -23.38,-11.17 -22.11,-24.95 0,-35.77zm21.61 -61.66c2.78,-23.05 19.37,-22.88 16.9,-30.28 -26.42,-10.47 -48.29,-7.71 -78.95,2.14l17.53 11.72c8.51,8.8 5.41,3.17 7.01,16.41 6.61,54.76 -18.8,44.69 -28.89,44.04 -19.64,-1.28 -29.33,-7.86 -35.74,-16.68l-8.77 -15.07c-18.42,28.1 -20.17,38.34 -22.08,71.42l9.03 -5.52c24.03,-10.85 29.24,-3.75 60.79,10.62 3.22,15.71 -2.5,27.76 -11.86,41.28 -11.66,16.86 -9.31,22.36 -39.84,10.17 9.67,22.74 35.08,43.15 66.9,53 -8.45,-18.19 -18.47,-19.76 10.97,-52.83 5.55,-6.24 3.94,-4.04 8.21,-7.72l7.18 -5c20.95,6.33 8.12,-0.93 21.26,12.85 24.43,25.62 16.86,35.29 10.34,52.35 34.43,-10.84 55.26,-29.52 67.06,-53.02 -27.22,13.34 -28.77,6.07 -40.17,-9.4 -40.6,-55.14 30.17,-57.61 35.56,-56.77 12.61,1.96 13.33,5.01 22.67,10.46 -2.56,-34.02 -4.38,-42.08 -21.47,-71.93 -1.04,0.84 -1.76,2.25 -2.24,2.94 -0.47,0.68 -1.56,2.11 -2.13,2.95 -3.73,5.53 -7.38,22.65 -40.36,25.36 -27.43,2.26 -32.94,-10.16 -28.91,-43.49z"/>
   <path class="fil18" d="M3570.48 625.01c12.18,13.65 40.26,48.18 -5.55,44.57 -41.57,-3.28 -10.33,-38.98 5.55,-44.57zm50.58 -45.19c18.98,-8.46 15.8,-10.54 39.14,-13.37 5.62,17.99 6.81,35.29 -12.34,49.97 -18.72,-7.97 -21.57,-22.77 -26.8,-36.6zm-146.31 -13.82c21.35,4.68 24.11,7.45 39.42,14.47 -3.39,13.05 -10.61,30.13 -27.03,35.89 -18.76,-17.34 -18.34,-31.98 -12.39,-50.36zm126.97 -49.66c-6.04,-16.58 -7.61,-28.18 1.32,-44.22 27.17,-0.54 36.28,15.39 35.88,34.89l-37.2 9.33zm-106.21 -10.72c0.36,-11.36 1.3,-22.65 21.71,-31.38 7.96,-3.41 1.92,-2.94 15.12,-2.2 6.89,13.89 6,29.61 0.04,43.75 -17.53,-1.59 -27.01,-4.61 -36.87,-10.17zm26.9 -50.45c38.6,-11.66 48.31,-9.18 87.43,-2.84 -11.85,14.18 -21.61,7.37 -23.31,33.25 -0.87,13.4 0.04,30.54 7.76,41.29 51.86,4.19 57.04,-20.39 61.17,-27.48l3.93 -6.37c8.04,27.26 18.63,37.91 21.45,72.61l-9.97 -4.15c-25.23,-8.27 -15.79,-5.9 -28.81,-2.6 -64.73,16.39 -12.2,64.2 -3.2,67.4l21.84 1.86c-15.38,22.39 -33.74,41.47 -68.65,49.11 17.79,-27.5 8.68,-45.99 -21.57,-66.47 -32.5,9.68 -45.22,43.47 -27.34,66.31 -38.46,-9.15 -56.77,-29.45 -73.3,-57.35 14.2,9.3 7.69,7.72 30.03,8.56 28.89,-42.27 47.56,-56.78 -18.68,-73.78l-26.09 13.7c0.38,-36.59 11.81,-47.14 20.81,-75.67 0.86,1.03 1.66,1.54 1.99,3.3 4.11,21.57 33.75,32.67 62.81,30.69 8.48,-11.05 8.37,-27.6 7.42,-40.99 -1.59,-22.66 -8.16,-19.64 -25.72,-30.38zm13.36 -15.51c-26.49,5.28 -31.07,6.88 -47.7,22.51 -5.01,4.7 -21.84,22.79 -28.01,33.87 -15.7,28.17 -23.08,63.03 -14.89,95.24 47.42,186.52 322.42,92.6 229.34,-95.09l-27.95 -33.72c-1.85,-1.29 -6.42,-4.08 -9.26,-6.03 -2.41,-1.65 -7.74,-5.69 -8.92,-6.46 -2.28,-1.47 -3.64,-2.92 -9.91,-5.86 -27.99,-13.14 -52.67,-10.44 -82.7,-4.46z"/>
   <path class="fil21" d="M459.42 884.32c-2.52,-11.23 7.84,-22.09 13.61,-31.72 245.8,6.06 364.62,6.6 611.09,1.23 8.19,13.03 17.35,17.61 14.6,31.53 -39.73,15.16 -615.2,13.43 -639.3,-1.04zm654.69 -0.15c-1.88,-19.23 -14.99,-32.96 -25.65,-43.28l-381.47 4.87c-38.34,0 -230.38,-11.58 -244.63,-0.01 -10.18,8.25 -21.81,31.81 -15.05,45.37 7.78,15.57 35.98,11.51 52.19,12.17l571.91 -0.33c26.24,-0.69 32.65,0.74 42.7,-18.79z"/>
   <path class="fil1" d="M1997.54 2568.9c25.33,20.93 24.49,49.87 66.97,52.6l391.33 11.81c11.42,-28.6 -9.96,-29.56 25.78,-49.69 -140.47,-10.23 -282.63,5.93 -484.08,-14.72z"/>
   <path class="fil2" d="M2418.87 1801.63c12.45,1.21 80.29,19.13 105.59,24.05 123.09,23.93 249.85,35.32 381.48,33.12l-41.71 -65.5c-71.35,0.16 -397.39,0.45 -445.36,8.33z"/>
   <path class="fil22" d="M1148.4 624.08c58.15,53.85 255.53,-7.93 259.11,-88.15 -21.52,-8.1 -110.95,9.12 -143.23,25.27 -19.1,9.55 -40.57,20.51 -59.29,29.38 -19.57,9.27 -47.54,17.2 -56.59,33.5z"/>
   <path class="fil13" d="M2861.82 2577.95c15.87,-18.06 34.62,-44.49 41.37,-67.36 -92.29,6.84 -173.34,5.66 -264.54,17.41 -50.73,6.54 -180.06,27 -214.98,42.7 25.01,8.16 379.59,7.12 438.15,7.25z"/>
   <path class="fil22" d="M293.18 561.14c-34.26,-17.14 -122.55,-31.88 -140.34,-26.47 -8.58,34.93 64.65,82.47 95.26,93.59 34.76,12.63 132.23,24.83 162.04,-4.18 -12.48,-17.14 -91.2,-50.06 -116.96,-62.94z"/>
   <path class="fil1" d="M2907.29 2630.75c47.87,-0.52 294.03,7.05 321.97,-4.53 70.45,-29.21 101.54,1.4 121.63,5.32 8.07,1.57 22.72,0.88 31.63,0.9 3.82,-39.24 -9.27,-52.29 -61.76,-51.03 -75.87,1.83 -374.9,3.18 -403.18,8.12l-10.29 41.22z"/>
   <path class="fil1" d="M3356.17 1791.45c22.94,-16.15 28.41,-22.04 26.41,-51.58 -81.95,0.45 -25.06,21.85 -110.13,16.95 -70.87,-4.08 -1.57,-17.73 -106.75,-17.03 -84.85,0.56 -175.44,2.95 -259.58,1.25 9.01,55.9 -7.04,43.4 194.08,45.51 84.73,0.89 172.29,6.16 255.97,4.9z"/>
   <path class="fil13" d="M3446.18 1307.82c171.23,-46.72 224.84,206.29 66.18,249.03 -127.87,34.44 -191.03,-105.99 -142.63,-191.05 15.36,-27 38.59,-47.65 76.45,-57.98zm178.47 169.68c20.62,-75.66 -14.86,-158.09 -87.41,-188.21 -131.01,-54.37 -253.59,87.56 -188.64,214.81 67.3,131.82 244.24,90.05 276.05,-26.6z"/>
   <path class="fil23" d="M2124.66 1306.84c110.66,-34.72 204.04,80.52 145.97,193.34 -11.96,23.23 -18.26,26.56 -40.86,41.41 -82.7,54.32 -176.13,-0.74 -191.85,-85.15 -5.35,-28.75 -1.01,-66.06 13.51,-91.98 14.92,-26.62 35.88,-45.91 73.23,-57.62zm-110.62 146.28c4.91,35.84 21.25,70.71 50.31,93.83 134.41,106.89 262.35,-24.8 246.48,-134.28 -29.43,-202.98 -324.66,-163.13 -296.79,40.45z"/>
   <path class="fil13" d="M2152.13 595.63c-30.11,-189.8 211.15,-215.38 242.47,-59.97 9.78,48.52 -7.71,132.71 -83.21,151.8 -96.27,24.35 -150.97,-39.56 -159.26,-91.83zm-25.01 -12.19c16.03,131.08 180.25,191.45 267.01,67.57 20.81,-29.72 29.58,-73.5 24.71,-107.82 -4.82,-33.98 -20.57,-70.14 -49.61,-94.87 -116.7,-99.38 -257.57,8.83 -242.11,135.12z"/>
   <path class="fil23" d="M3535.77 439.66c30.03,-5.98 54.71,-8.68 82.7,4.46 6.27,2.94 7.63,4.39 9.91,5.86 1.18,0.77 6.51,4.81 8.92,6.46 2.84,1.95 7.41,4.74 9.26,6.03l27.95 33.72c93.08,187.69 -181.92,281.61 -229.34,95.09 -8.19,-32.21 -0.81,-67.07 14.89,-95.24 6.17,-11.08 23,-29.17 28.01,-33.87 16.63,-15.63 21.21,-17.23 47.7,-22.51zm177.6 147.85c16.5,-131.93 -125.89,-237.2 -240.32,-139.85 -25.91,22.05 -45.16,57.48 -50.25,89.67 -21.41,135.36 130.7,240.86 240.58,142.25 27.12,-24.34 45.48,-56.04 49.99,-92.07z"/>
   <path class="fil1" d="M2348.36 254.53l468.74 3.67 -5.82 -30.62c-50.84,-10.82 -364.07,-15.76 -438.73,-17.58 -11.49,14.37 -18.93,24.69 -24.19,44.53z"/>
   <path class="fil2" d="M2993.05 1857.11c48.11,5.26 141.4,-0.7 193,-3.31 44.9,-2.26 52.74,3.47 77,-17.07 14.51,-12.29 31.24,-22.33 38.31,-37.37 -81.48,-1.44 -258.97,-7.86 -332.97,-3.94 2.41,20.35 21.69,59.67 22.43,58.42 0.35,-0.6 1.34,2.23 2.23,3.27z"/>
   <path class="fil24" d="M2936.05 1093.44l-9.91 31.38 476.5 -3.12c-6.72,-27.23 -15.65,-34.74 -28.61,-44.39l-437.98 16.13z"/>
   <path class="fil13" d="M3299.6 2572.81c-4.3,-13.73 -22.19,-25.25 -38.12,-39.05 -16.03,-13.89 -10.96,-11.7 -35.69,-13.91l-233.93 -7.42 -22.52 65.87 330.26 -5.49z"/>
   <path class="fil23" d="M1052.04 1924.53c5.02,11.99 22.77,35.16 32.08,44.66 23.61,4.12 49.36,-1.56 73.6,-2.99 22.71,-1.34 54.42,-0.08 69.45,-10.69l4.65 -73.44c-52.29,-3.94 -146.1,22.46 -179.78,42.46z"/>
   <path class="fil13" d="M335.71 1961.11l137.08 10.33 34.45 -45.91c-30.23,-21.75 -134.85,-46.12 -179.36,-42.82 -2.97,19.63 -0.35,61.8 7.83,78.4z"/>
   <path class="fil12" d="M2510.25 2583.78c21.59,14 21.2,22.54 30.12,47.34l155.04 -1.97c96.24,-0.63 32.66,-2.61 78.73,-13.11 21.42,-4.88 46.76,-2.92 68.9,-2.15 -13.5,8.9 -70.06,13.93 -71.35,13.82 65.08,5.81 63.38,-0.38 78.49,-10.96 26.87,14.53 -0.57,13.08 41.79,12.93l12.74 -42.08 -394.46 -3.82z"/>
   <path class="fil1" d="M1976.51 1161.8c65.16,15.86 140.03,4.97 207.97,-0.46 72.76,-5.81 145.52,-8.53 216.89,-14.4l12.39 -35.46c-136.01,4.31 -332.38,7.87 -437.25,50.32z"/>
   <path class="fil12" d="M2515.4 1787.98l385.74 -3.96c6.93,-14.76 -2.18,-27.07 -10.2,-41.95 -34.02,1.75 -43.55,27.79 -116.04,14.42 -36.13,-6.66 -10.5,-7.65 -34.1,-11.47 -17.53,-2.85 -175.89,-4.62 -200.55,-3.64 -7.1,18.75 -14.25,33.58 -24.85,46.6z"/>
   <path class="fil25" d="M3743.1 294.9c-31.33,-38.02 -342.61,-50.63 -420.35,-51.08 7.12,52.54 7.3,33.01 194.22,47.6 76.68,5.99 152.53,16.69 226.13,3.48z"/>
   <path class="fil1" d="M2830.2 258.5l485.43 18.29 -7.37 -33.38 -41.33 -1.82c-9.41,15.17 6.23,13.46 -17.91,29.51 -33.3,-6.66 -19.27,-23.37 -73.72,-31.57l-352.82 -12.48 7.72 31.45z"/>
   <path class="fil1" d="M2496.02 1141.34l342.1 -12.44c68.85,-2.52 76.86,9.89 82,-35.56 -51.39,1.1 -349.56,6.18 -391.53,22.79l-32.57 25.21z"/>
   <path class="fil1" d="M3675.39 1444.97l6.64 28.78c36.27,3.44 140.51,-6 169.76,-15.39 39.08,-12.55 78.22,-45.52 84.38,-82.06l-1.24 -25.7c-0.76,0.88 -73.33,55.8 -92.81,60.98 -37.32,9.91 -124.07,12.4 -167.18,12.92l0.45 20.47z"/>
   <path class="fil26" d="M2995.22 922.21c77.71,-3.59 161.21,13.16 233.31,24.89 30.67,4.98 30.39,1.79 42.59,19.44l56.59 96.41c-51.89,5.16 -121.62,6.31 -173.95,7.75l-153.97 4.45c-11.51,-1.08 -9.49,-1.1 -17.23,-3.22l12.66 -149.72zm-59.83 158.71l432.83 -12.68c-10.33,-21.67 -35,-51.04 -50,-72.55 -26,-37.26 -16.97,-39.25 -78.49,-51.5 -71.81,-14.31 -193.68,-32.91 -272.8,-28.62l-31.54 165.35z"/>
   <path class="fil1" d="M2076.66 603.92l3.2 -46.55c-46.04,-2.61 -126.81,-4.41 -164.05,-15.06 -38.23,-10.93 -55.09,-46.28 -92.24,-59.99 1.31,48.63 27.31,84.05 71.39,102.99 26.58,11.42 147.74,27.41 181.7,18.61z"/>
   <path class="fil13" d="M1238.04 1960.14c29.9,-0.68 65.54,-3.88 95.71,-6.38 48.07,-3.97 48.11,3.6 41.51,-49.55 -28.68,-14.06 -91.47,-22.36 -126.41,-22.92 -7.79,13.49 -9.41,62.24 -10.81,78.85z"/>
   <path class="fil27" d="M2748.98 55.68l14.15 151.76 -318.52 -10.02c-20.29,-2.17 -23.92,-1.19 -17.5,-15.86l49.61 -80.81c14.5,-22.58 37.2,-20.78 73.99,-27.56 46.03,-8.49 150.94,-25.79 198.27,-17.51zm-364.66 142.59l423.42 17.48c-2.31,-24.16 -24.08,-152.78 -34.95,-167.82 -81.36,-5.96 -193.12,16.35 -266.27,28.84 -61.87,10.56 -49.57,17.86 -75.02,54.13 -16.51,23.54 -32.65,44.37 -47.18,67.37z"/>
   <path class="fil13" d="M182.42 1904.21l-1.4 46.08 139.19 10.23 -6.71 -78.63c-35.55,-1.6 -100.58,8.53 -131.08,22.32z"/>
   <path class="fil28" d="M183.37 843.33c33.18,-27.26 62.45,4.85 30.72,33.02 -16.76,-0.29 -20.4,-3.94 -32.22,-11.22l1.5 -21.8zm44.51 -22.11c23.79,1.97 51.16,8.39 74.07,12.35 32.04,5.54 41.84,6.94 39.84,39.56 -25.47,23.17 -44.87,15.91 -85.44,17.73 -57.64,2.58 -127.93,16.76 -89.58,-57.98 8.78,-17.12 19.9,-20.21 42.86,-16.75 -14.56,6.4 -31.91,9.11 -36.96,25.83 -13.86,45.85 42.36,57.96 61.24,33.55 14.42,-18.64 1.36,-37.65 -6.03,-54.29zm-49.87 -15.39c-31.95,12.74 -49.25,80.54 -14.11,95.78 16.41,7.11 128.65,1.29 152.79,-1.23 48.16,-5.04 57.25,-66.04 -3.56,-76.92 -25.79,-4.61 -116.12,-25.22 -135.12,-17.63z"/>
   <path class="fil28" d="M1340.05 835.4c27.8,-16.48 49.78,21.44 25.8,36.79 -26.82,17.15 -52.24,-21.11 -25.8,-36.79zm0.65 -16.5c-45.08,33.72 -17.93,79.21 22.82,67.07 15.76,-4.7 30.63,-21.48 22.65,-44.33 -7.36,-21.05 -23.14,-19.62 -42.02,-24.68 24.97,-3.92 35.02,-3.83 44.83,12.78 46.66,78.98 -43.19,63.32 -75.29,61.65 -22.69,-1.18 -73.67,2.82 -88.91,-9.19 -9.26,-7.3 -12.92,-22.53 -5.65,-33.92 9.98,-15.62 100.03,-26.51 121.57,-29.38zm7.14 -14.1c-21.46,3.68 -116.7,18.4 -129.46,26.55 -15.95,10.18 -22.55,36.47 -6.9,55.04 13.64,16.17 40.49,14.31 67.69,15.46 73.97,3.14 167.64,25.64 122.21,-75.46 -10.69,-23.8 -24.93,-26.49 -53.54,-21.59z"/>
   <path class="fil13" d="M1521.75 389.13c26,-50.08 -103.41,-71.52 -124.71,-23.39 -13.52,30.53 13.95,31.95 55.14,47.29 22.72,8.46 61.15,-7.68 69.57,-23.9z"/>
   <path class="fil23" d="M1340.7 818.9c-21.54,2.87 -111.59,13.76 -121.57,29.38 -7.27,11.39 -3.61,26.62 5.65,33.92 15.24,12.01 66.22,8.01 88.91,9.19 32.1,1.67 121.95,17.33 75.29,-61.65 -9.81,-16.61 -19.86,-16.7 -44.83,-12.78 18.88,5.06 34.66,3.63 42.02,24.68 7.98,22.85 -6.89,39.63 -22.65,44.33 -40.75,12.14 -67.9,-33.35 -22.82,-67.07z"/>
   <path class="fil13" d="M160.95 388.37c26.08,-47.76 -102.68,-72.56 -123.88,-21.9 -12.54,29.94 26.3,47.25 51.37,48.96 21.99,1.5 20.05,-5.81 36.31,-11.59 17.59,-6.24 27.64,0.2 36.2,-15.47z"/>
   <path class="fil13" d="M227.88 821.22c7.39,16.64 20.45,35.65 6.03,54.29 -18.88,24.41 -75.1,12.3 -61.24,-33.55 5.05,-16.72 22.4,-19.43 36.96,-25.83 -22.96,-3.46 -34.08,-0.37 -42.86,16.75 -38.35,74.74 31.94,60.56 89.58,57.98 40.57,-1.82 59.97,5.44 85.44,-17.73 2,-32.62 -7.8,-34.02 -39.84,-39.56 -22.91,-3.96 -50.28,-10.38 -74.07,-12.35z"/>
   <path class="fil29" d="M2823.65 215.48c49.14,1.75 332.98,16.84 351.46,10.34 -42.54,-13.69 -261.91,-1.9 -318.98,-17.09l-48.27 -156.83c215.29,12.29 333.48,66.07 477.69,152.94 16.34,9.84 14.51,5.41 20.03,22.93 -25.62,0.08 -41.52,-4.72 -58.36,2.57l82.93 4.59c-94.9,-75.86 -299.39,-187.76 -540.57,-188.31 -1.6,24.06 19.55,151.67 34.07,168.86z"/>
   <path class="fil30" d="M2407.64 1100.93c28.37,0.02 58.12,2.29 77.74,-5.43l-57.82 0.18c45.07,-69.51 357.69,-186.63 504.31,-172.7l-44.54 157.22c-53.12,2.79 -300.83,5.07 -326.63,14.06 25.53,4.66 340.72,-6.97 363.92,-13.45l33.11 -166.54c-157.11,2.85 -347.09,54.58 -447.94,119.48 -27.05,17.4 -87.61,50.43 -102.15,67.18z"/>
   <path class="fil31" d="M1854.2 318.79l101.84 -18.36c61.8,-7.66 48.41,1.58 80.5,-29.91 -22.49,-9.86 -63.15,-14.05 -92.53,-19 -22.12,-3.72 -74.55,-8.75 -90.4,-19.02l0.59 86.29z"/>
   <path class="fil32" d="M2442.94 186.61c-1.39,-13.13 22.44,-44.25 32.33,-58.92 20.89,-31.01 4.24,-29.37 57.38,-40.42 42.86,-8.92 167.74,-28.68 208.66,-22.23l6.77 132.54 -305.14 -10.97zm306.04 -130.93c-47.33,-8.28 -152.24,9.02 -198.27,17.51 -36.79,6.78 -59.49,4.98 -73.99,27.56l-49.61 80.81c-6.42,14.67 -2.79,13.69 17.5,15.86l318.52 10.02 -14.15 -151.76z"/>
   <path class="fil12" d="M3441.86 227.52c0.79,17.27 1.08,9.32 67.08,13.13 104.5,6.03 205.63,27.25 299.11,58.16 40.35,13.34 64.07,29.26 95.79,40.82l5.72 -8.36c-28.27,-10.73 -61.9,-30.65 -94.77,-44.38 -32.87,-13.73 -67.02,-27.39 -106.19,-37.37 -47.87,-12.19 -185.77,-39.94 -236.38,-30.02 -19.55,3.83 -3.72,5.03 -30.36,8.02z"/>
   <path class="fil33" d="M3003.5 931.89c61.28,-3.94 155.64,13.67 213.14,23.09 49.37,8.1 41.49,12.11 59.89,40.65 10.04,15.59 30.34,44.19 33.54,59.69l-316.96 10.58 10.39 -134.01zm-20.94 140.04c7.74,2.12 5.72,2.14 17.23,3.22l153.97 -4.45c52.33,-1.44 122.06,-2.59 173.95,-7.75l-56.59 -96.41c-12.2,-17.65 -11.92,-14.46 -42.59,-19.44 -72.1,-11.73 -155.6,-28.48 -233.31,-24.89l-12.66 149.72z"/>
   <path class="fil7" d="M1434.33 1827c19.74,-29.61 94.71,-19.06 92.47,3.41 -1.32,13.25 -29.13,21.5 -48.17,21.4 -42.65,-0.24 -44.09,-24.48 -44.3,-24.81zm113.6 20.3c-6.16,-40.01 5.58,-46.94 -48.14,-57.71 -32.81,-6.58 -76.77,3.56 -84.29,27.75 -7.41,23.82 4.13,38.14 24.11,47.04 18.59,8.28 55.85,8.69 73.48,2.98 25.96,-8.42 2.93,-10.61 34.84,-20.06z"/>
   <path class="fil34" d="M30.08 1827c17.48,-20.3 82.1,-30.02 93.71,4.06 -15.05,27.81 -83.34,30.29 -93.71,-4.06zm22.35 -36.56c-55.84,5.28 -57.68,70.17 -0.98,77.83 10.07,1.36 39.9,2.46 49.62,0.16 0.45,-0.1 16.95,-6.29 18.38,-6.82 15.19,-5.61 5.8,3.02 16.77,-8.83 6.55,-7.07 9.1,-19.74 7.61,-29.09 -0.23,-1.4 -1.32,-5.41 -1.8,-6.66 -12.29,-32.32 -63.02,-29.09 -89.6,-26.59z"/>
   <path class="fil13" d="M3719.44 1137.09c31.76,19.73 8.19,23.64 67.48,29.36 27.43,2.65 75.97,10.9 99.73,8.49l4.34 -66.57 -171.55 28.72z"/>
   <path class="fil19" d="M1810.29 2449.68c36,62.88 113.83,146.29 210.71,165.38 -60.29,-78.21 -120.21,-99.81 -210.71,-165.38z"/>
   <path class="fil24" d="M1810.51 1922.82c15.19,-12.56 39.85,-28.25 56.2,-39.74 43.53,-30.61 134.66,-83.59 153.02,-126.13 -57.39,18.95 -91.51,35.54 -127.3,66.33 -17.63,15.17 -75.86,74.9 -81.92,99.54z"/>
   <path class="fil15" d="M454.21 970.79c-31.29,0.01 -62.7,-0.21 -94.01,-0.35 -41.9,-0.18 -61.47,-12.01 -54.41,31.17l151.35 0.94 -2.93 -31.76z"/>
   <path class="fil16" d="M279.39 2337.11c47.94,-30.31 79.64,-39.39 146.19,-34.89 -5.96,10.67 -43.62,34.38 -56.87,36.67 -18.04,3.11 -72.78,3.05 -89.32,-1.78zm67.81 13.86c31.8,-0.03 39.73,-3.79 59.41,-17.16 29.88,-20.29 37.21,-18.86 41.24,-35.4 -49.83,-33.88 -190.03,13.26 -190.17,52.36l89.52 0.2z"/>
   <path class="fil15" d="M1248.85 1000.18c6.58,-10.69 6.59,-12.07 2.35,-29.7l-148.92 1.15 0.25 30.33 146.32 -1.78z"/>
   <path class="fil35" d="M1133.42 2302.48c63.98,-11.17 105.64,9.09 144.72,35.27 -16.73,3.95 -72.52,4.67 -89.82,1.46 -23.77,-4.41 -50.5,-33.55 -54.9,-36.73zm-23.74 -4.07c3.53,14.12 -1.19,6.24 13.18,16.61l55.01 33.59c16.6,4.54 101.21,3.5 122.02,1.7 0.24,-45.06 -157.01,-82.16 -190.21,-51.9z"/>
   <path class="fil13" d="M3379.99 1052.51c60.3,-1.79 74.28,-0.24 95.89,-30.16l-154.37 -46.34c3.13,10.28 46.48,68.44 58.48,76.5z"/>
   <path class="fil31" d="M3074.45 55.13l91.09 36.35c32.2,14.4 60.51,30.01 90.9,43.95 15.97,7.33 27.02,14.07 38.53,22.3l42.03 24.29c32.15,16.91 38.21,37.38 105.81,37.68 -8.9,-10.83 -21.06,-14.39 -43.04,-27.59 -74.1,-44.5 -192.69,-92.22 -277.18,-127.48 -18.82,-7.86 -35.3,-18.41 -48.14,-9.5z"/>
   <path class="fil13" d="M2276.81 154.64c19.32,24.96 48.2,29.18 101.45,28.38 20.11,-23.18 29.49,-50.87 51.32,-72.42 -31.07,3.96 -82.8,21.23 -114.3,31.03 -16.01,4.99 -24.51,5.79 -38.47,13.01z"/>
   <path class="fil19" d="M1806.52 1235.22c71.71,-9.46 167.5,-29.07 215.96,-54.38 -35.65,-17.11 -92.41,-9.4 -125.56,3.54l-73.21 35.11c-16.87,10.16 -7.19,0.53 -17.19,15.73z"/>
   <path class="fil36" d="M3703.93 311.16c39.63,22.48 144.52,49.83 209.03,54.68 -15.83,-19.8 -55.21,-38.48 -86.97,-50.5 -43.7,-16.55 -70.1,-17.18 -122.06,-4.18z"/>
   <path class="fil1" d="M1835.5 381.73c65.52,-5.83 139.09,-43.3 153.58,-72.3 -17.77,1.55 -100.2,9.28 -110.93,13.16 -18.55,6.7 -35.51,42.88 -42.65,59.14z"/>
   <path class="fil12" d="M3923.57 1247.88c-8.68,-18.71 -22.13,-51.68 -44.36,-57.9 -16.41,-4.59 -90.05,-10.31 -111.66,-12.38 21.88,26.09 84.38,67.21 156.02,70.28z"/>
   <path class="fil37" d="M1874.46 1416.54c-19.78,6.31 -66.07,13.14 -69.21,-12.28 -2.89,-23.35 35.58,-27.66 64.2,-32.68l5.01 44.96zm26.04 -58.12c-31.83,-2.48 -150.17,7.81 -94.79,75.31 33.67,1.89 70.99,-3.45 100.92,-6.97 12.94,-25.43 11.59,-44.89 -6.13,-68.34z"/>
   <path class="fil38" d="M1042.6 2430.65c-15.72,-30.37 3.99,-59.04 33.99,-40.14 10.2,6.43 14.04,23.05 4.96,35.38 -9.54,12.96 -25.44,7.55 -38.95,4.76zm68.53 -6.25c29.73,-53.69 -83.18,-56.89 -98.65,-30.03 -32.18,55.88 84.02,56.43 98.65,30.03z"/>
   <path class="fil5" d="M3848.47 551.01c5.67,-13.8 9.2,-28.8 3.95,-46 86.22,3.23 61.01,39.5 56.99,50.45l-60.94 -4.45zm-21.58 -60.88c-12.56,13.59 -27.82,46.01 -9.22,62.96 9.98,9.1 71.54,18.3 94.76,11.59 23.49,-6.8 25.59,-45.79 6.48,-56.55 -4.92,-2.77 -60.96,-20.22 -92.02,-18z"/>
   <path class="fil39" d="M1278.14 2337.75c-39.08,-26.18 -80.74,-46.44 -144.72,-35.27 4.4,3.18 31.13,32.32 54.9,36.73 17.3,3.21 73.09,2.49 89.82,-1.46z"/>
   <path class="fil38" d="M468.23 2421.53c-3.5,-48.77 42.44,-40.48 49.22,-20.8 5.33,15.44 -1.98,27.82 -15.35,31.42 -17.03,4.57 -23.62,-3.78 -33.87,-10.62zm-27.64 -5.26c4.67,24.83 30.38,22.84 58.51,22.69 26.5,-0.14 50.48,-1.15 46.65,-34.08 -3.16,-27.1 -30.57,-25.79 -60.05,-25.28 -27.33,0.46 -50.55,7.73 -45.11,36.67z"/>
   <path class="fil13" d="M279.39 2337.11c16.54,4.83 71.28,4.89 89.32,1.78 13.25,-2.29 50.91,-26 56.87,-36.67 -66.55,-4.5 -98.25,4.58 -146.19,34.89z"/>
   <path class="fil40" d="M178.15 452.37c-7.02,6.14 -38.87,42.85 -32.89,60.63 4.34,12.89 64.47,15.16 84.36,16.52 -11.37,-17.99 -19.59,-21.48 -30.74,-38.49l-20.73 -38.66z"/>
   <path class="fil41" d="M1328.01 529.2c18.95,-1.02 34.57,-4.03 52.08,-5.96 19.23,-2.12 31.03,1.53 32.57,-12.95 1.97,-18.6 -23.13,-50.51 -33.77,-58.22l-21.33 42.05c-6.14,8.65 -6.48,8.5 -13.77,15.56l-15.78 19.52z"/>
   <path class="fil29" d="M1434.33 1827c0.21,0.33 1.65,24.57 44.3,24.81 19.04,0.1 46.85,-8.15 48.17,-21.4 2.24,-22.47 -72.73,-33.02 -92.47,-3.41z"/>
   <path class="fil29" d="M30.08 1827c10.37,34.35 78.66,31.87 93.71,4.06 -11.61,-34.08 -76.23,-24.36 -93.71,-4.06z"/>
   <path class="fil13" d="M3303.95 2526.82c47.32,73.03 162.95,29.11 171.08,14.42l-171.08 -14.42z"/>
   <path class="fil23" d="M3477.63 1827l-28.47 -11.21c-17.85,-5.22 -75.86,-16.34 -87.03,-14.01 -23.25,11.98 -45.93,27.54 -58.01,43.49l173.51 -18.27z"/>
   <path class="fil13" d="M2543.16 2683.01c-2.98,-21.72 -22.16,-114.85 -65.56,-82.65 -18,13.35 -1.51,37.86 10.22,51.42 12.27,14.17 29.79,26.15 55.34,31.23z"/>
   <path class="fil13" d="M2498.96 1778.77c27.41,-12.56 40.69,-64.65 44.74,-88.21 -27.78,-0.47 -49.64,20.35 -60.04,36.06 -14.9,22.51 -21.9,42.46 15.3,52.15z"/>
   <path class="fil26" d="M1788.14 1931.27c24.83,-38.59 52.86,-74.98 88.09,-106.49 26.82,-24 58.75,-46.63 98.65,-63.1l34.83 -14.3c0.71,-1.51 2.71,-1.44 4.07,-2.17 -125.22,18.45 -234.83,146.98 -225.64,186.06z"/>
   <path class="fil4" d="M1042.6 2430.65c13.51,2.79 29.41,8.2 38.95,-4.76 9.08,-12.33 5.24,-28.95 -4.96,-35.38 -30,-18.9 -49.71,9.77 -33.99,40.14z"/>
   <path class="fil13" d="M1874.46 1416.54l-5.01 -44.96c-28.62,5.02 -67.09,9.33 -64.2,32.68 3.14,25.42 49.43,18.59 69.21,12.28z"/>
   <path class="fil4" d="M468.23 2421.53c10.25,6.84 16.84,15.19 33.87,10.62 13.37,-3.6 20.68,-15.98 15.35,-31.42 -6.78,-19.68 -52.72,-27.97 -49.22,20.8z"/>
   <path class="fil13" d="M3848.47 551.01l60.94 4.45c4.02,-10.95 29.23,-47.22 -56.99,-50.45 5.25,17.2 1.72,32.2 -3.95,46z"/>
   <path class="fil40" d="M1409.49 567.19c6.91,12.55 27.72,38.65 43,45.1 3.59,-34.74 -10.14,-63.76 -30.25,-84.67l-2.39 7.94c-0.21,1.02 -0.24,2.27 -0.46,3.38l-9.9 28.25z"/>
   <path class="fil42" d="M105.5 611.82c11.75,-4.02 15.73,-11.14 24.39,-20.8 27.32,-30.46 17.36,-19.93 10.33,-45.08 -1.32,-4.73 -1.48,-8.21 -2.16,-10.56 -3.1,-10.8 1.61,-1.43 -4.06,-8.61 -17.14,27.97 -33.23,45.45 -28.5,85.05z"/>
   <path class="fil25" d="M1417.9 469.62c25.31,-37.58 36.47,-60.45 -10.18,-57.48l-13.1 29.06c8.29,17.62 11.89,23.38 23.28,28.42z"/>
   <path class="fil43" d="M147.8 412.31c-61.56,-2.27 -6.13,56.25 -4.33,57.52 20.94,-20.37 27.12,-33.4 4.33,-57.52z"/>
   <path class="fil41" d="M1340.05 835.4c-26.44,15.68 -1.02,53.94 25.8,36.79 23.98,-15.35 2,-53.27 -25.8,-36.79z"/>
   <path class="fil12" d="M183.37 843.33l-1.5 21.8c11.82,7.28 15.46,10.93 32.22,11.22 31.73,-28.17 2.46,-60.28 -30.72,-33.02z"/>
   <path class="fil12" d="M98.01 1879.44c2.38,9.68 6.56,16.81 10.37,25.15 6.41,14.06 6.08,17.52 18.19,24.21l16.45 -36.81 -12.95 -23.66 -32.06 11.11z"/>
   <path class="fil25" d="M1436.19 1928.97l25.37 -48.29 -34.63 -12.72c-6.54,13.03 -22.05,30.34 9.26,61.01z"/>
   <path class="fil12" d="M2921.35 1818.72c-13.4,-26.22 -1.86,-24.09 -45.62,-25.48 5.2,16.55 14.87,25.84 24.63,40.4 12.72,18.97 6.27,24.83 40.74,26.81 -3.2,-16.86 -11.76,-26.1 -19.75,-41.73z"/>
   <path class="fil12" d="M2920.86 1793.72c6.2,8.04 15.79,30.16 20.61,39.6 11.73,22.98 6.11,28.02 38.86,23.76l-22.69 -62.47 -36.78 -0.89z"/>
   <path class="fil12" d="M2952.8 2576.13c12.28,-11.93 10.67,-15.84 16.6,-30.64 17.62,-44.02 5.95,-27.9 -0.16,-33.23 -21.91,3.71 -8.43,-6.9 -20.9,11.97l-26.02 53.69 30.48 -1.79z"/>
   <path class="fil1" d="M2415.84 1144.23l67.99 -0.21c-2.33,-6.57 -12.24,-28.67 -14.63,-34l-43.68 1.16 -9.68 33.05z"/>
   <path class="fil12" d="M2940.67 2512.39c-34.08,1.49 -28.54,8.58 -40.48,26.92 -9.71,14.94 -19.92,22.4 -21.85,38.8l31.05 -1.26 31.28 -64.46z"/>
   <path class="fil13" d="M3195.45 233.23c28.68,0.38 39,-12.5 37.49,-31.8 -17.96,-11.34 -15.52,-11.22 -48.85,-10.77 0.95,13.13 1.79,31.44 11.36,42.57z"/>
   <path class="fil13" d="M2540.82 1100.51l14.83 -43.78c-93.87,4.35 -45.31,46.42 -14.83,43.78z"/>
   <path class="fil29" d="M3386.66 1436.86c-9.24,16.4 -1.85,38.27 8.87,48.68 19.65,-5.27 5.81,6.63 19.37,-12.74 5.39,-7.7 7.49,-14.62 9.11,-23.74 -13.48,-9.23 -19.18,-13.27 -37.35,-12.2z"/>
   <path class="fil29" d="M3513.52 1383.11c18.6,1.17 27.87,-1.4 40.43,-11.27 -0.6,-19.09 -13.59,-30.23 -37.05,-32.48 -10.65,14.91 -5.93,27.33 -3.38,43.75z"/>
   <path class="fil29" d="M2203.1 506.23c48.45,25.66 46.59,-12.52 33.93,-34.55 -16.94,-0.31 -13.49,-3.54 -25.63,8.7 -7.7,7.77 -9.46,14.73 -8.3,25.85z"/>
   <path class="fil29" d="M2272.75 624.13c-80.3,62.68 81.54,56.11 0,0z"/>
   <path class="fil29" d="M3621.06 579.82c5.23,13.83 8.08,28.63 26.8,36.6 19.15,-14.68 17.96,-31.98 12.34,-49.97 -23.34,2.83 -20.16,4.91 -39.14,13.37z"/>
   <path class="fil29" d="M3570.48 625.01c-15.88,5.59 -47.12,41.29 -5.55,44.57 45.81,3.61 17.73,-30.92 5.55,-44.57z"/>
   <path class="fil29" d="M3514.17 580.47c-15.31,-7.02 -18.07,-9.79 -39.42,-14.47 -5.95,18.38 -6.37,33.02 12.39,50.36 16.42,-5.76 23.64,-22.84 27.03,-35.89z"/>
   <path class="fil29" d="M3534.7 1449.06c1.47,12.23 12.02,28.99 23.87,35.93 16.57,-10.02 23.97,-28.27 14.79,-48.13 -14.8,-1.31 -28.25,4.74 -38.66,12.2z"/>
   <path class="fil29" d="M2163.61 1490.94c-18.27,16.74 -34.66,28 -13.54,45.44l21.48 0.48c25,-15.53 12.47,-25.58 -7.94,-45.92z"/>
   <path class="fil30" d="M2236.2 1371.84c-1.5,-14.5 -16.87,-37.58 -32.13,-31.13 -18.48,9.25 -7.64,9.29 -9.41,47.29l41.54 -16.16z"/>
   <path class="fil44" d="M3406.85 1371.84c15.48,12.02 17.04,12.02 38.62,12.56l2.33 -44.87c-28.19,1.14 -39.77,11.78 -40.95,32.31z"/>
   <path class="fil29" d="M2235.31 1485.42c26.24,-8.45 26.98,-27.58 21.35,-47.25 -11.27,-1.31 -1.84,-6.69 -32.01,7.07l-9.52 4.39 20.18 35.79z"/>
   <path class="fil29" d="M3601.72 516.34l37.2 -9.33c0.4,-19.5 -8.71,-35.43 -35.88,-34.89 -8.93,16.04 -7.36,27.64 -1.32,44.22z"/>
   <path class="fil29" d="M3495.51 505.62c9.86,5.56 19.34,8.58 36.87,10.17 5.96,-14.14 6.85,-29.86 -0.04,-43.75 -13.2,-0.74 -7.16,-1.21 -15.12,2.2 -20.41,8.73 -21.35,20.02 -21.71,31.38z"/>
   <path class="fil29" d="M2308.47 473.14c-6.46,10.39 -5.7,28.21 -1.69,42.67l38.69 -8.23c-0.48,-20.33 -14.87,-39.79 -37,-34.44z"/>
   <path class="fil45" d="M2127.54 1340.83c-28.08,-1.88 -39.36,15.94 -37.42,34.82l40.91 10.26 -3.49 -45.08z"/>
   <path class="fil29" d="M3454.55 1525.17c12.03,10.02 21.19,15.71 44.49,8.49 9.16,-16.02 -6.56,-32.67 -20.29,-43.06l-24.2 34.57z"/>
   <path class="fil29" d="M2326.49 583.44l21.03 34.13c24.61,-11.87 24.36,-31.38 17.83,-50.03 -19.83,1.48 -29.92,7.35 -38.86,15.9z"/>
   <path class="fil29" d="M2082.26 1484.46c15.82,-6.85 21.05,-19.89 25.69,-36.42l-37.62 -11.37c-12.12,19.08 -3.12,36.85 11.93,47.79z"/>
   <path class="fil29" d="M2181.25 570.73c-10.61,16.45 -2.83,35 14.12,46.76 3.09,-2.39 4.13,-2.24 9,-7.67l13.79 -30.44c-16.23,-7.8 -21.47,-13.34 -36.91,-8.65z"/>
   <path class="fil27" d="M3265.8 2524.06c8.04,11.7 3.81,6.99 15.74,16.54 30.48,24.4 19.97,30.78 57.85,31.02 -10.8,-17.4 -44.69,-44.9 -73.59,-47.56z"/>
   <path class="fil26" d="M3265.66 1848.41c27.82,-3.2 28.21,-9.86 43.43,-21.03 27.34,-20.07 19.64,-7.65 30.63,-27.76 -32.97,2.14 -62.41,29.25 -74.06,48.79z"/>
   <path class="fil46" d="M3481.19 1449.11c10.64,-4.19 20.98,-8.38 16.38,-23.6 -3.38,-11.19 -11.73,-13.34 -28.8,-8.97 -13.45,14.91 -12.34,24.78 12.42,32.57z"/>
   <path class="fil47" d="M3577.5 579.83c11.29,-13.76 11.43,-18.11 1.35,-30.64l-22.12 -3.55c-12.49,19.55 -14.85,32.82 20.77,34.19z"/>
   <path class="fil48" d="M2159.65 1412.87c-22.11,10.82 -23.38,24.6 0,35.77 30.06,-7.73 30.24,-27.53 0,-35.77z"/>
   <path class="fil9" d="M2278.71 546.24c-14.21,1.45 -21.14,2.05 -23.95,13.24 -8.83,35.14 66.85,17.39 23.95,-13.24z"/>
   <path class="fil44" d="M2487.06 1126.99c16.33,-2.9 29.6,-8.43 17.85,-22.56 -8.98,2.11 -3.21,-6.59 -16.17,8.08 -4.87,5.51 -5.49,7.31 -1.68,14.48z"/>
  </g>
 </g>
</svg>
